<mxfile host="app.diagrams.net" modified="2022-09-07T07:49:18.074Z" agent="5.0 (Windows NT 10.0; Win64; x64) AppleWebKit/537.36 (KHTML, like Gecko) Chrome/105.0.0.0 Safari/537.36 Edg/105.0.1343.27" etag="cANP0Gj743DCJ49repAr" version="20.2.8" type="github">
  <diagram id="sEc7zOkYih-RPMcAf28x" name="第 1 页">
    <mxGraphModel dx="1422" dy="786" grid="1" gridSize="10" guides="1" tooltips="1" connect="1" arrows="1" fold="1" page="1" pageScale="1" pageWidth="827" pageHeight="1169" math="0" shadow="0">
      <root>
        <mxCell id="0" />
        <mxCell id="1" parent="0" />
        <mxCell id="mIeuOYbAj065qQ5HJTc6-2" value="" style="shape=stencil(lVfbctpADP0av2q099Vzmv5HZkIKUwoZQtvk7yvXXfDK8aG8GXPOrm5Hkofw8LZ9et0Mnt/Op+P3ze/d83k7hC+D97vDdnPanfVpCI9DeHg5njbfTsefh+fp9+vTiByffhx/jSe8TzwREhlZnj+mN45q/vvi64Tf7w5zfCKfejxTYEBgirknZMp1nVAjRd8RfCQGhFLIxY4QPGW3TsiVcugI0RPHdUIS8j0haZTSOiEKxdIRsqNUAIHJ145QmDLIg7rI/Q2lkgCCBtFEqWrcQJRcodxnWgIVcIMLxH0pSaUKSsN567RWo0c3MNUFIYPECXGweAEWZZIe75iJASE2B+cXAIN8E9cMXwLwmIK3+AC0oFoMNgUCzr94N8NHYL+e31edFOiv2i8Wn0A8favhGd6BiogkrsdrCoEwS9P5HI+6lxWN2sMeVujSAQ8SphoIixuQ8FVlzrhcyaESCuQXhIwI2j0XRQc7haO4UEECN0gbADN8BfjSRD5XGQhqajX2n/hgu/VoD3KYysL+BPBMSSz+X6tcU+VCxWigMbli8Shh9+KTncgSbhVE7R2uuW0BnxPE9lGdZmir8NU2rnwjxaWJ5EJgqPyYrUk68z0KUrYTOaouQFXn2FrtbG9hJAPdIcxmFNqbtc3IDFjdvRxoj9W13nPJNAxSTbbdqcvo/GznhyMGdTGuKD2eqYAc1EvVXPER4aUdd8U7IEzReWbxDPxVnbC1B60TEinLPednm+Ab9hfbeblJ+3N8bX1wFn+E187e++uaKFbG5WIBcbBR3P25chOvD9dvo5fdfj99Ws3/t99S+mr6DguPfwA=);lineShape=1;" vertex="1" parent="1">
          <mxGeometry x="107.399759820481" y="232.58492237230996" width="20.00561698339493" height="85.56936097675737" as="geometry" />
        </mxCell>
        <mxCell id="mIeuOYbAj065qQ5HJTc6-3" value="" style="shape=stencil(lVjZctswDPwav2JIAjzwnKb/kZk4taepnXHS6+8L1aEiQtG2eZOpXZMAFge145vnw93TfpfC88vl/HX/83j/ctjxp11Kx9Nhfzm+2NOOb3d883C+7L9czt9P99ffT3cTcnr6dv4x/cOvKy9W0jSxUvj9ukKx/V34fMU/Hk8LPGfKYcAHCmEbnxNF9vi0jS+JtPrzlG18FeI24Jla3cY3O38Z8I2ibOM1U4jjeWxHYEAMs0M6IyVicCRt1GQ0IZKiMyW/g9gOCowOJHkgWFgURK0USqPVFpcKbMiByiijGklA3FiojjbURsrbBNON6hi4TBHYEO1IjqDQrbZDGqWkTCVDG8JotAplkDxiJrodTF5gB3Mrsye8RuZ9QqQcPaEgQiJxNhS8gykne4IiG7ibOBMqVUQwqTkbGmWQcma0jjmtShHkg7m1qScUQBB7HTxBgbwt0olXBCSN4uuwESrIB8nUVoSEjmRSY+9WJA0RKmNdssA1kEATQT0hIIJl8FjsJ/GhOJT+f0t5g7oktQthmUBAfBa4vMq4gNyqKy3l3vK21BpXNgjOh5g9QZG800oaBcp7SlEXh0oC1Drt4AgmeNQfUvf6ggBtiP3/FvLOuFR6aSjscRbpMhbjReveZOiHGMyUVknagBVxrnQLAoMkNbcH71eUcnEV6UwMDrQaZjT2MvL+5ODzrZn0QPrE+fVMiNTABmxdeoxzzbh2Z79DaSTIhODrnq0gm20GdVE2MWZgdJM+6swDXKAK8m1y+pg+NiKilmgjovOSzcVogGvrbKjQSzZTuqk1Jth/bCB001KDE2KJXtq5t8j/vGkIDAIXPypJd8FWaroB1LQOMnO6WdWP4IvH576whQ/F4Suah3NvrW94RnjxY5hQQ+e3e5E4POq0hnd3DMaVQvwsPHetLbxTdOpX103/FIcPOF5OzxGOU1N82eEZJNhHb+b/xtvD22eAh+Pj4/UrwvK9/2xgS9dPDnz7Bw==);lineShape=1;" vertex="1" parent="1">
          <mxGeometry x="301.3498038052005" y="249.7530663848504" width="36.03408859160845" height="61.62836825732688" as="geometry" />
        </mxCell>
        <mxCell id="mIeuOYbAj065qQ5HJTc6-6" value="" style="shape=stencil(lVjbUhsxDP2avGpsyddnSv+DGULJlBIm0NvfV25ml0jOHtq3sOjYuh5J3snN6+Pdy37H4fXtdPy6/3m4f3vcyacd8+H5cX86vOmvndzu5ObheNp/OR2/P9+f/365G5Lj17fjj3HCrzOOqcYB4vD7/CFQCH8/fD6LPx2eL8RjoChOPnYg35fj3uUrOJ8TlW7kI4W6LS96XHXyHegjhWo28kK5bMunSM2en6k2IJ8pNSPfqCH5Qpmt/kwdGJwSSbKASswAoAGyEVAXRRACyRTtDSMoOAYuxlypoyAXCtZoPSKjG5jYZqkkisitmjU2DBr4lrYBmSm5vOhUAaBkb3RiGOlaFyeugEKStwFNM8fekAOluA3omtu2NnMmBirFMEWuRGIQiN4o2EAUNQvpFKlYnaoWnACr2edGVQoBgKpOsTY0nBu5UbSBUE93EAgtuWpV6kIdkIZogRULUC8hVu1UHKBDlQatWsBFLK8jmiemcQUCaA1PgAKsVkDuHiAgNxQg7gZMlgOQPSCB3BgqsQ8Eag8KaHPkkA2NRDxAAG8ooAcPYJwbeQYAlUYHn2xARKOAPNlQgFsV4L208sJ1QPS0MQKHVerVAzo22vX1kXzYBplKrqDk60sDuSwglBqd+L9r1LWIj2ig+WlMARUB6jJ9XQA+qKA03YDoOFY/n2jkMi7qNAEivqFO6VoRoF2h4wRGJgW4oXiUHL7BuxUDWOPqjE7UASAJRadShDbkQsmycSsw0qV5Fmhx6XvXG6+mmr2hFhgHbbPV8n3V6QBkq/okWfou+AadgNI0zyC+1xtcAWVNDTAAtbqsIytA4LShPmHrpdQhGxfxuaRzYkCja/QqabIEtAOpAk6lsHzZyla/NK198jpgHYVXQF7yd7MFWaN1hkJ7lt6Qp50D0bfuHG6I060GzT+qQLKsoV2soiUlU7NeGsMB3i2D23UFb2Z9IZWVBGBmDKe7WRou03qc3zjg8KMeZJeqC3Fu0mR28ox4eHpsEFjN01sGXgTYz0lpcdd1bXyfkoXDr4oHP+cJ5Lrgs03gIhZ8S9OKA8Q4b+hwSJ3EI1yeJ2UiZLjJ1AALcXJkgAvkFKZADHSfkmCdnv8txfBE96G4/nh/mXs4PD2dH/Yu/+9f8vTT+RVQbv8A);lineShape=1;" vertex="1" parent="1">
          <mxGeometry x="460.15341008110136" y="239.13985789726894" width="68.17982288501662" height="89.08153401195136" as="geometry" />
        </mxCell>
        <mxCell id="mIeuOYbAj065qQ5HJTc6-7" value="" style="shape=stencil(lVfZbtswEPwavS7I5bV8TtP/CBCnNurageP0+PuuKlAWV9YYfZPlGWqP2YNDePrYv7zvBnYf18v5++7X4fW6H8KXgflw2u8uh6s+DeF5CE9v58vu2+X8eXqdfr+/jMjx6cf553jC74nHTDWPLHZ/pjeBqv/34uuEPx5OC7wXYtfhK3mEj1T68/VNFEDw5LgjqIkpbhMKhdQ7wJTLNj4Slw4f1SC3jWeKocOnTBXYE8j1+FybhRv2u9jhxVHIMKK5j6gI5QAcSBR8nzKNASAEId+7UDP5uk1Inmqfg5ooAlVkITEqYiogSJJIjNMZEqq0IDZCqZQxoSRLQLqrKvy4+gJDQnKWUIHylFB6qY7SwCaZPChBQOK8c+R6m8RTApkbP9GXpzBsAKMTwRJgIqotONGSAgWhBFcsIaC4SmsQSwLWBldLYPSFYruqOi3Ih0LFW0IAbVIJSWziBJuUiiV4/IVsnHaUgJhGp9kSHCJoWFcVVEBjGhPHlpCwlpxfEcBwUEKQlUnIh3onSjCsc80vCAUk7n6NQn3Xlfp8S80WQVbqQ0O6zq1xQUBDcWyW6wrCBLNnPCDoPIhmpDjog45lM3h1yiExJV4RKp6jpTXfefe55fL+qI6UzOTVM4BevQalT3X1VIDX8U5jQq1vLvnFNoPOX2lVtyUPpLfaHCJDqSY7dIODLUOaLOdt0sFVxrMtT11IM1pwc5tms8etld9PsbeLic50YJDizfmuhWALX4vBO2QP2+3wgUS5LZsLe0DCxguGxSPB6f7sxeAzik+wHdtje4LdwjTAyN9gWx0/PN8bPNzOQ0v/7QL24Hz2Bp/AZvG/F7zHeH243SbfDsfjdBld/m9vn/pqurmG578=);lineShape=1;" vertex="1" parent="1">
          <mxGeometry x="684.3150850977136" y="233.59291010427967" width="102.36445624737416" height="65.53988359019752" as="geometry" />
        </mxCell>
        <mxCell id="mIeuOYbAj065qQ5HJTc6-8" value="" style="shape=stencil(lVfLbhsxDPyavRIU9T6n6X8EiFMbdePAcV9/X24XsleUd4Lc1vKQIqnhUJr8w/v+6W03Cb9fzqfvu9+H58t+8l8mkcPrfnc+XPRr8o+Tf3g5nXffzqefr8/L77enGTl//Tj9mj38WexqpZpmK+G/y4qjEP4vfF3wx8PrGh+Ia493lP22QQkkoTOQQKVuG+RIuTfwgZLbNkiRYu4MwtXFXYMYKJTOIGYKedsgCNU+6VQog5C8UHCdQS6wSlp11yddCiVQJSfkuDOokSqDslKKPb6SgJyT5YXiE/Af7+ALOIRAeYinFlBSCoP/CgokJH6IB/jXA8hDvmkbzxTE4j3Il4lNPAXmq/hk8RHkq/FUixfAOEfe8CdTFVRPXywetgAlb/EJ+A9t9zU+In46Z/EF8p+zrQ8D/9fsVniPZGvgv3Y86K9rtCv+OBjPyOcI8k3kB36ieOId/lcQj28ifp0DrJQFAUk7/vUGkKBxKBBSdR4IV5tkbOAtgWqT1K2GNPHoAQNC89Bg5QOB+BxeD8w0pK6AeFxof19HTIYKpDsYCukQY1BRH5vir8YkMgjZ3g1iogIMYrFdoKPegSJpANJXSS8TDFiXE8XeQJXJgyoVFSJzgVJpBTtU1/rwduNidOOSplMNz210buGjxQcgXNWTWLyAhPUGaG4eDHmntBziZ4RPd/CgL1X3zWRlKOzznLP+HRDGuc0t3iP/1U5KbpTawhdbzwL8r3T2RiA0OT59xf8Qrx+398TL4XhcniPr/+37Q5eWt4t//Ac=);lineShape=1;" vertex="1" parent="1">
          <mxGeometry x="702.3191249288775" y="252.58630570629907" width="34.09183166691946" height="113.99340779835006" as="geometry" />
        </mxCell>
        <mxCell id="mIeuOYbAj065qQ5HJTc6-9" value="" style="shape=stencil(nVfbchshDP0av2pAgIDnNP2PzMSpPXXtjOP08vcV3WFrsd1jp2/ORgddjjgSm/Dwtnt63W7YvV3Op6/bH/vny24TPm2Y98fd9ry/6K9NeNyEh5fTefvlfHo/Pk9/vz41y/br2+l7O+HnhPPkuYHY/Zo+OHLuz4fPk/lhf7wyF/JlMC9x3dw7SmLsPcUE7BPVMNiXum7PTD4beyb2wL5SsOkmcuD8kMd8KzkQf0yU7Pk+UAzrgBSoRgvIVAsgwJPYimrKghgrFK0HzsSAsxwp2JoGJQGElCtJsgChBFgokdhWNWiQwEMpxDbpoESCpKu2mR89FEBcjeSdBWQSBoBCuYwh5QwAldh6iEwOVEkByZY15t7ta4AyNHekjD1Uy7QEeJ0boBpADrD5WkjWQ+Hucw0gVgCquwVgG1IVzEPpijIDlDiUtPamjACYdCEnY0gBeciUF0kHRFym5MayeuwhDMSpagDhU0C0vSRKHLpAGpK9D03agPIpoNgqRelHrJWVbZWiaiFmWqzytSuK7nQdiYvafBgwaKsOAC8QkO2dTh7Kfbtx1oM4EgDwbh7gM9UOd18dZ64Ker2RhO0N1ed0o0xWjauWCfWGEmE9tC+oXUu/kfMYdXiR+Q9E7KN/Dopxd3gKtp2KTq0bY86SXVLfn1YHqQ1Jv6AOV2bTQo8z8NCWgaGbSl+J1taNYHWgjQigZW2hsc0hyjW41qorg4BLpASaQ+9kHMacg1ti2/osD0lgSLwYQon70Lhzb03afGiRXizGCgjAw3LzVkD5yGaf5h3q3w7Gh4OmzGBAuL5/XZ8PWHPj/Yy1L4Er9sPWqrQjoXTkLWVN6+H5btiKU5+pa/Y2/tYkoIeW9nhTWsTjpQ/U+/L1vm/h99VTunTcRxf3VfG+bnBQhj74Sr1prj/+Pohf9ofD9J6+/v/4gNZP0+M7PP4G);lineShape=1;" vertex="1" parent="1">
          <mxGeometry x="138.59522305536598" y="312.5849133514073" width="125.16847037968523" height="5.41678198184627" as="geometry" />
        </mxCell>
        <mxCell id="mIeuOYbAj065qQ5HJTc6-10" value="" style="shape=stencil(lVfbctNADP0av55ZSXt9LuU/OtOUZAhJJw3Q/j0yHgevYgt480XHuh0drQd5eNs/ve4GDm/Xy/nr7ufh+bof5NPAfDjtd5fDVa8GeRzk4eV82X25nL+fnqf716fRcrz6dv4xfuF9wklCLCOKw8f0JKC23w8+T/bHw2lhnxg5dvYFnLbtiyCFzp4KWtwGtIDx3QIghJC3ARQCQu8iJrTguCgQ6gA5zVmtAmpGlT7pBCpu1jV1gMog3gbkgGYABaVuAyIh9yE1cXOgbJNuDdHpHDFi72FR6fUyIYn1kJwcEoKJqIJl257BPfVaBjnxBCSyJYquveGRcjE6TQso2fYsOvkySs/sGlEdFikpzfcZ1fl+A7fenlDI6bDYUVOAl4CObog2InYqpCUSA7hNxjpAa2RyyGCnZxxBPelqQ/BCijbpxj5AbNItuhI58sLMgQqO40HLmkxIzZc8QUkW0BwPDfVu9qszaXkWq8Vkemokc7iLyfSYqmqXbUnFES+dTFNRmsVpw176pVara0936quz56kvkmGpKovTsGrj10FrDoXu7dlVXtGC9gmXOO/ddWkpqD2pc0RwMtaNFntKJD05OC3LDbmvUbyxdiuk2MuvqNw5RY0M6aukPKyeVtwtHJ08TyBVjcxG0y2aPIAujD5p8rWC2l1IPHNxHVBBxkNwk1ZAMLOA5DswW0cPDp4W3ZTn1ue5LeslollJbl2bh+kfBZ7mY8C6fbbMDm78qo3F2rujpgdge2AmTxr/84D9d3u9+HOafzkcj9PPwPK9Pf3ro+nPQR5/AQ==);lineShape=1;" vertex="1" parent="1">
          <mxGeometry x="251.52656392172685" y="305.79250560547575" width="18.09986948268761" height="23.742801981264392" as="geometry" />
        </mxCell>
        <mxCell id="mIeuOYbAj065qQ5HJTc6-11" value="" style="shape=stencil(rVdJbttAEHwNr43Zl7Pt/MOA5YiwIhmysv0+xTCUNdNSxQR8o6iuYW/VXTP4u7ft4+tmcObtdDy8bH6OT6ft4O8H58b9dnMcT3ga/MPg754Px83X4+H7/mn+/fo4WU5P3w4/phN+zTgrIU8gZ37PL4qU+vfFl9l8N+4vzItk05hbI87etrdBXGwBVmy6DXBGousBhQGyhM4lJ54AfJDqekB2twHBSYk9oJIkRSO1Tar1YgsBIK2lB3jiUopLTi4AgQCyE6cBJIacpdoeECPpDOREZakwQBbfAQwtXLVi2sIlKZ7YhyWHi71fvnjdvohrO8mIMdS+q5qTRGpQq7iqyMM+UCW1ANC1Bgr49/c54iSJpMiac4gLIoIMhND4RGl7OxWJHBC7CQN+ZgqwvgFUNBKLGg60acIb2hhFTNvb+CYNGjOmzWuN4gmha5La0q0k8azUqFPrUgY/mUtp4fu5cIiKu9QBAppplUvgW2SFU0FjZCQyY3RaAyeQqptZGPXBxsDuWdV5me4q3do2S+L87MjjrURSgyv8DBibnG7dCEiYeixJashkpJlnqRtjBWExl9ScROGpS2oQX+ThsxBqOUz9zraD2j7V027S+w15Yt2hNyiOsMQlvaMxZQIDKBUAABveWmdMgFVKBoDEAEorAVBWqTFkyZAYtN4DwBGXtKIsnNZas5YilgC0KgaArTglu9FKmTBIqXp0r2UyXazrz6+kCOZKlQNhm1m05tkeJxDumD4/mUs3cL09PwXaplr1hIV7H7MPUQypl/LHRyrPVbxYtazjVD4thjJRPKpe02Zme6fvByhVJi5W3iL/a46H9wvr87jbzffdy//7Cy5ezZdj//AH);lineShape=1;" vertex="1" parent="1">
          <mxGeometry x="341.595223055366" y="311.278966844779" width="95.507496639701" height="3.4420663104419873" as="geometry" />
        </mxCell>
        <mxCell id="mIeuOYbAj065qQ5HJTc6-12" value="" style="shape=stencil(rVdbbhsxDDyNfwlR1IvfaXqPAHFqo24cOO7r9qWx0HbF9U5QoH/ymhRfwyG1k4f3w9PbfhfD+/Vy/rr/eXy+HnbyaRfj8fWwvxyvdtrJ404eXs6X/ZfL+fvr8/T77ekmeTt9O/+43fBr0ouBQr1pxfB7+hJIpg+fJ/nT8XUhn5hEBvlKTbflc6LAgzwzNdlWKJlKGhUytbStUAuVOChYCBGE0Aq1PCpkqsAlzT0lXUEiVRA0B8tqGDSSkDRgolIpg4IlLqMg1FsoiZhBmmp3YC5cpBBBIaxyOioocQHQUF85y3QGFiRQGS2oUA4gS1THEFR77e/HTGnM0aIw99HaM7IwkEGhI+loQBslgFWmOCJPDbx5Wz6s5BMlgNQV7DTCeANlVzGcUO6wn+Vrv+F+hVeIyKQA1dbpzcsH1AUUnT+JFECUDXHsDcCAY6//IuIA2oyta1zIDbuUqLmaGUoAVZiC7wKhimJIK1QUCgBFt6BHjjd6+iCtXkFJgEtWt+DlkYG8ypFSA1UwGhnZ1PpSQR9w5/9FwALuD52mZvlMEcqv+7KB/MwDbJa3qYwGDsl4v4GOAYZi78IFUyfgTyZ29+feef9FPhqtjQWzcaXAIVtD/HAK2KO8mpcRKpSZmeeJPG8m9zFtSR07P+HFpaivghRi0JfZFMaghTvQtyayW+5sJEbE16V7PCtYVIiMVhOTrXPQBBQKI3uxQQ9ZYEpugcwQ20ZGDnxmM4Pm1N66iw0Vrl6deubmpATFdcxQ7Rv0hjeOSnHnrCeaUAIbhXG7zz9sNMudG8mhc/EWIJo6eUb+VI9pvKH963vlY3k7/H0cvRxPp+lttfzfP6bs0/QQk8c/);lineShape=1;" vertex="1" parent="1">
          <mxGeometry x="421.7870748563146" y="300.90176992127454" width="24.01706751996312" height="23.70549635843895" as="geometry" />
        </mxCell>
        <mxCell id="mIeuOYbAj065qQ5HJTc6-13" value="" style="shape=stencil(nVfbUlsxDPyavGp8la1nSv+DGULJlBImhF7+vnJTp0iHs8n07WC0sS6rlbzJN6+Pdy/bTQqvx8P+6/bH7v74uMmfNintnh+3h91Rvzb5dpNvHvaH7ZfD/u35/vT3y92wHF/f9t/HL/w84SKFPkAp/DodBArhz8Hnk/nT7vmdeSERY674tG4eE+Xk7FsF9p1SMfaZuqzbp0qpGnum2tbtc57RTXuhkkG4kbL1Z0RUAEB/zyXo7OKHgMokNgLNQQQucaZiAaMGoGQsFBxAkwpcasVzQtP89+RjQKdaPIDjOqAnqsEDOkhrrz5LysSKbhCKtg4pUQdplUSxekAG1JY6y/SuDgK4Kp168DEwqIMIpWgBjRi5JJP85+4plFDQMnMyASVTA5VWgFhqVKU3aLgBsHXgNmu/6hIbQNNSYpfYSsyoPaDGSKvNkjAllFYtnAMINVxp16IKKIDeCnAtquxKKEuNmgta04piaL7jWrt0Q7EArrgf2lTSMzUyFDIFsL1B1VawS92SL2tPo0p3Px10PFwAsCXfkBncQF4qeTbtGqDYG3Kcd64BmgWUQBm7JFaMqw4xkNYYgh+KY8ZgnRHLvlbhGB1BWCXrTAHLhmOfFNyjWgh7wzhBLunMcoM64NXnPxA6Ni1CtNhIOHQI2bB7hy2xHHM6KSOYKctB2jNl4JKOarfQ9Djl8MplQAGMtgddN9gDUA/xotY9zJ9YXZkcXxvUsrGUWS1TJ9FCM9Y+OyJanG24ulhalzQq1NYqdW7yMsOFZqzGNgbGWjZ2b+dSguvGcrnnSBWQb/F40AsS4N7ibaKFREoWqC8CyIB5gapbZgQyVYXXElWXH/QYCL45lSYMKhB8I5QEW22h27nO6XKdve6TiEILf/QEyfwi3piJof8un40Euu/KlSE9F2wIc2pdRzas7RfN9ePfm/th9/R0erK//79/o+vR6X2fb38D);lineShape=1;" vertex="1" parent="1">
          <mxGeometry x="544.595223055366" y="318.5849133514073" width="129.5483942886283" height="4.470915349768575" as="geometry" />
        </mxCell>
        <mxCell id="mIeuOYbAj065qQ5HJTc6-14" value="" style="shape=stencil(lVfLctswDPwaXTEEXyDPafofmYlTe+rGGcfp4+8LV0MlgKzt5CbLuyIILBbklO5e9w8vuymG18v59H336/B42U/pyxTj4Xm/Ox8u+jSl+yndPZ3Ou2/n09vz4/z75eGKvD79OP28fuH3zKuBJF1ZMfyZ3zAl/vfi64w/Hp4/4CVSiAbfKNdtfKsUssHHQClsE7pQaoaQKjGIiEOgEAyjCFW0RKbMhiCFWMAmdNPFbrpRKzBLsRtCTySAUJnYpqlXamDXJVC0aeqNatsmxEql2kK/J24jscQ2r72PxN3eBPXgQ2p5G5+9lLT2HEFAJGLxWsi0jQ9eSZ2HGDfwTkdNYC8EqjajLVEF349D+As+UAYFyEMyi0yFOvi+kFgNidYc5TNQF0+IQEOcvSI0oggiYhWxI3RKKKRGYmumvQdD6qMRF0KhhlZQgluhUwHNryE5gvYy4013G5L2MoPm17R6t2jjzW2CuoULSdMKOkFWEXVoeJm6HQramciNImXnXgU6RfBK7VplUDTtTGvY6r8FTJ0wsrHgMzWQH151MsP4EzWLlza+sOGM4tpAGwPkXzXaPR7l57P4WFaEAhs515VVJOi9Vc3dSrT2cdK4LdFCxda4Ruh2ap5si5AbJTSU07Ce5WSh/o6qlkaTLGcXtTuwQmFvFapENNF0igc3lFVIgKBbrDZL6jZIeVlWhAyzpAR2BMZTXIa5Lc0Mk6R4cYWGR6O8Ggk69YE5Xk9GVtuRCpggJfqjF0O3Lnl0ysDrgqCXS6VcHB4du0rzZhRgwT57gv8/Xh/erwtPh+Nxvm18/N9fL/TVfDVJ938B);lineShape=1;" vertex="1" parent="1">
          <mxGeometry x="650.4814212931283" y="310.78051472131483" width="24.009760684964476" height="20.712534453929948" as="geometry" />
        </mxCell>
        <mxCell id="mIeuOYbAj065qQ5HJTc6-15" value="" style="shape=stencil(lVfLctswDPwaXzF8guA5Tf8jM3FqT10747ivvy9Ul64AWdvmJstckVjsLslNfnjbPb1uNym8Xc6nz9vv++fLbpM/bFLaH3fb8/6iT5v8uMkPL6fz9tP59PX4fP39+jSNnJ6+nL5NX/hxxfVKmSdUCj+vbyJTL7/ffLwCDvvjDNAypWwAKZL0dUAVKskCKjEAlEIxWECnHtYBOVBpBpALZVkHxO5rKIFCA4BIsVoAjznvA4S6LbpmYlBDahRs0bWNT9wvmj2AEwlonNKabdHcKEbQuEilG0ALJACg3/ujnBugEwOWuJNYliRSBUW36BsnhRKgtSXPkrQhx1WA9UPXohkuqdgZuuoXGUilZmnt6rgMWBJKVt5dMIApWpZ6h57mPBw8AyAtcaTW/ZIYsMRadPVFVyQ+GQu4AdRAGJBdHwIlEAJTLomVBpNUAOiUbR8kUwPi06LFASKUxuRg6wc1UAFL4krBAeRfFk0LiyZsUQcQrQo5Liw8fdsx1gzkAUwZ1KAWjQ7QqSFAHG2aaSmAHUhrqAuLBqAlXsS9+iEjWtlLQx3XQC5xIbaejiGMbFsTU2E/RURrei+gJmptwSugSXdZt41KhbtijoOUmfo6WFJKQwk3fVcSdBTI1B0gUANyrdQsSdoZFGRhsa8XamBBYWj/dtJI8Pvs3ZMTTDE93hXbg4STOAlVW7GusaPzWxq5OztSIkNXJrYZo+etAjhSQ1cL4PHi7niVZbWkBuh/3cGl+vFAppoOsbnxBY1vlG2+RBjCGibFnblHT+6PX4Q2PiVN2SOOT8TPLHpuvhyZvDZBt+OjRgHosALc5hzTONSsUeSySJ2NjK89EKuJWKFKtclsRTHJGjjt3Ver/wDow9+b3Mv+cLheBOf/+5ufvrreGvPjLw==);lineShape=1;" vertex="1" parent="1">
          <mxGeometry x="127.69368919948897" y="229.15925572797062" width="33.15024269037258" height="21.61406658826388" as="geometry" />
        </mxCell>
        <mxCell id="mIeuOYbAj065qQ5HJTc6-16" value="" style="shape=stencil(lVnZchs3EPwavk5hMDifHec/XGU5YlmWXLLi4+/TDAvIYpbsjd+oFWYxV/cce7J33x4/fH04xfDt7fXl88OP88e3x5P9cYrx/Pz48Hp+w6+TvT/Zu08vrw9/vb78/fzx+vfXD5eTl19fXr5f3vDzKhdF60Uohl/XB5qk6r9P/ryefzo/b84nUVvPd4nt/vki2pfzuDHn++ebaFnPJwnp/nkN0leFokliAlFa9BopsRgOaW0VCJIKESjS1xu0jVfcFugSnECVVu8LRB0+2QikSASi9OYFKlEpZunqbchMoElcA615PLkpYCoxLAJVjITBTMKqUaROtezfHyQEch4u9+crOZ+QBGviFYkk71IcIZ0OKpLYBUm6gw7SiHg0Ie/WrMCdxYgA3reCLWcJJO9ykLbGoJh0YkOGAqvRpUon2IECN24gRuc2TJw2REmEYIqKrUYjkoUJ2CCsIWCgSGJDyVKdAMDBbkiSVy8h0sxLlxscnJsE4qXSdpQUKc3XINnhv0omN1TQ+pp8FimHVVSSVaXUBzPfFsiSVqPhBmMqFW8D7mSpUZvPVrxCCYCaijoOU6mEBJpJWTGN2DcSh5YHvmZ6F2pDq572EoiQ3dBGIszAFVoPu3rWAHUGJmC+gEKlTNzadyQAWmDc2tuOi2cNvi2AirvaAIRkLpBXAURaSRwg0NZII/kybWRmfZoSTYy5aXdFizRdL0as+d0OAgE3rZFDtiiB3CUQq5salGQ3oA1ZVepBIqE+CDjI4QbWjfUdCwAiidlQRg2cApOf/2e6ghcoILI3utbRht8T6GtFqXZktK2AqAduLb47uRRqBog68LKBXGE2tEFDWwGGoF13ApUaswGJoN5o6tbuWz641TioXUuGwIUDgTVwLdAeDgLVpTdqFrchOsTV4YZ7bnVFrvUjAcdLxxC16G+ggfttARvt0SYOlbk1SnAFYg6atwWC5/vcKB7aLg6lD6vuFWo3z9ROyRiJEHbcGknzjVRzMxxQzkZjONH1cJuidK+JKy43Mi1BAJib71uhZRFl1kMuU4wC82U1ogSqEuLkViCYvNhsjNSxVcBmW3dboPrONRmds8CMDnLZKLmii3Q1CwJsIYApyC0EjrwEQKwqQUkjgQNeXFVE7CNRCY2tr4qdxiEnX+TQXrOhJqufFdEwVeJWTCRhNxAwUGMEr45nMp2CkGp+fOXrK4z0deXKpJS+Md267tuU9g4GPKwAiolvZnbdiXYaB0yGjpgi7+9t9trThpmOt7dR3W+jMLOzuhtnT7gZagq7YfpkM+SzETyqpxnMWaxmafdVESopWyPOHeBGJYZpzb5hstkR3RawsevdJF8leFD1618wHwNQ9fMxzrPsRt6s8Lms5Uh1iH6cNj4BBZ/aSDy2pEDxWUOATGQME0Yt22x+GNaCB0IsB/q7vgd5e3B+9Q88lvh5t64PtCoEPwRoo0vQ3ZJVC6WW4NkROW7E/+r1V95u606fg88TvgjqXHvdyc/f+xxzfB4//vv28+n89HT9dLT9v/9WhEfX70z2/h8=);lineShape=1;" vertex="1" parent="1">
          <mxGeometry x="138.83167171067907" y="234.3572058981373" width="138.83578931666148" height="24.78723935295932" as="geometry" />
        </mxCell>
        <mxCell id="mIeuOYbAj065qQ5HJTc6-17" value="" style="shape=stencil(lZZNctswDIVPoy2GJEiCXKfpPTITp/bUtTOO+3f7QlUkCxjrtdnJND+CAB4ADvzwtn963Q0pvF0v56+7n4fn637gT0NKh9N+dzlc9Wvgx4EfXs6X3ZfL+fvpefr9+jTuHL++nX+MJ/yauJ4p1ZFK4fe0kgKV8nfl8wQcD6cVUBuJBThR7dtAKRQskCPFvA1kplos0CnFbSBVitZCLcQBWIjULCCBuAGnK4m9kmRqvA3oeRIsUCkAH/S8IBZo8Ep6XrEWWoR5ECFhCxSqIEoKuDy0Pnu1daWUDdAZakk0080CdVbXVljfhbAAjTpwWhPngBgCBeBETRRtXHvH+m6z1lZ3CrggvBMFprqw13dXAScAJGILNKEGnFagdQswCajRkr2+W5jL/D4gs9YWfQvsAjVSslcSXNR1CeKqRgXUaO2U2VvIqOSYQvY+ZAFAoRZ9lArqAst5C7D05y3gXQgLoHIEYdUabbaou4oFaEmD6LqAqlVQn4mUXRfQK4EoVaHiukCf43YfYMrFAx1pSYH6EYALFfZOR6ClqH93nwfUmJYmtJpAAnyOgboFxqEIDKgFscrIgSqwoGPcqXtcARZy9i+BpEMMBKn0eRoszbjMqb8LaBNybSlCn1v1fS/AYrjl6LYfzQZtuzX589H+TDH6+4MU6PRzowQ/rcZBYytnKdb7+zuxlXWlDipzrBJXmVRAr1jN1sVhHaf/uJG1EDOsA3U52g4ZhQKyUH2Xj30W+lbSPvYi/g9AP24P8JfD8Ti939f/+we7Lk2PfX78Aw==);lineShape=1;" vertex="1" parent="1">
          <mxGeometry x="344.96931375078293" y="239.8969206301067" width="19.12032392969013" height="19.26146807244004" as="geometry" />
        </mxCell>
        <mxCell id="mIeuOYbAj065qQ5HJTc6-18" value="" style="shape=stencil(rVjbTlwxDPyafbVyd/JM6X8gAWVVCgjo7e87p6sc1j67s6rUt73ESWyPx+Ps8tXbw83L3S6Ft/fX5693P/e37w+7/GmX0v7p4e51/45Pu3y9y1f3z693X16fvz/dHr6/3Cwrl0/fnn8sO/w62GUpdTFK4ffhh5Qktb+/fD6sf9w/Ha0v0oNdr1Lj+fUqudv1ha6PQfIwBrFJJxeKGw+aDCXr8bddHySE8+tTnH9/7N8KWZ9F1XqcpRIHsF+yFypZUiYGXVo0BnVIICfkIFqsC4hpJQa4gDPQucVpgybVJWHd4jSMkOZmfahSSNoQk2YNSpHRiUEVtVHKRRozUCkOqlXiIAZDSvJQLcSgrkBYDQo3UAnZXqlNtJ82GDIsWC9gqSWfhxakkXJoxUdJkUpm0CXZK2mSSK6kUZrDEiiGJE6rZBul2kUTMdD59xolpVjS4eENwA/idE/SN4mL5EodmbZoBfhYpgdoyfIkijYQYh0rmI8KqJMSHV26jRLgGNmVxoaJg0R2wpgsdMQag9RDDGFDxl0yietyhGVjoK9dcMLhe+W2s2FyJ4zJz+cMovWhR8oCQ32DALxoqkES0Z8QOTaacxpesSvViebVoNIaHUXUog9lXlniyqZnKQcT2oFjsnTJh+JoY1CuRFhd4iqgwa4EknCNus4tzmVaN10xcPBV9VcqLNNjqrtj7cCcHps8JKp/YDAsli6IjcXAngBoMO0Ag+YM1g5wzsBxJeCtvERdV0QB0YpDh7JYWkqUZbr5isMJlegfoNVhCTSj/9UgeFm5FBBrchvBtKCVnNDRcFw9cKcRRC8rA9cOG7RqoR1lkQK2gHBm5GLDabgOgcNOgACzTo9MOzv0lOuKSwNgGq7P9rEaDMqtKMhgTzhqrKct8hTnR3dS4kSLUxSuBmnS7Wnl2r3URd/tBBvAWrNXAjaUnZB9mBbVR4oa4NwqJpZqDATZxhVnZjZyNE/fSE1m0zeGZ8dkF05IfkZBidA5CwXm8M3HplwnEI4yzTpK3hZEmTP/ufG1Wh9QQUoMMCA7vu9jTo+nDYofOVDmbN5N0T8iQBs39uqAirT1kFd5fdpAfaPGQJBIiWKUdD0LgWZKN4LvbVgxKzKlC2XhpEOgdJ825YM2TdYHLxHzoG09eP2WlRIrkG2LDdBlVB88I2U+OmxmEwA3kBQHLyeTUorEnL0ZEQMBKfLrZtBEp9w4d1vXR8otcT7kresDncWSH3HjoAyffNkvEWbPXJsROtD9//Xp8/J6fPh4Z73fPz4enmmP//fvsvjp8Kabr/8A);lineShape=1;" vertex="1" parent="1">
          <mxGeometry x="356.7793191262117" y="244.72980465423825" width="104.72925617399733" height="20.361782762527127" as="geometry" />
        </mxCell>
        <mxCell id="mIeuOYbAj065qQ5HJTc6-19" value="" style="shape=stencil(lZfdbtswDIWfxreEKOqP1133HgWaLsGypkjT/bz96AXyIjo5SO9c118kkueQ0iQP79unt80Uw/vpePi++bV7Pm0n+TLFuHvdbo67kz1N8jjJw8vhuPl2PHy8Pp//fnuav5yffhx+zr/w+8xpoqYzFcOf8xtOxPzvzdczsN+9XgBVKTpAqaTbQGnEcQBiogiAXKjWEbA1420gZWplACRRlduAZIptAFKgqreBWCjkEagk9TbAlXgEcoNBW4hhjKEUuIIFnWQAqvTKXK+DUEsjoD1v1yudfaWbkCCgdeUsQKICgBZIHFAwwFTGtDYlBllqkUIYAGVSoCVbwW3JHFIAYEkso1q1kII61NqFsACNagOA2cWtYIULAGAKzQOaoUUDeyCCJlBy1+YCVFg4E59Tq5p+ERApuS3Frt97gdDTcOeWWsVbyl39C2AOQUDz4jMDVdRbV4Uz/SqQ9yyN4ldgpFYTnwva2j1I6yzvVdAKeuvaQK2RALVesWiABlo3AbW0ghjWbcYsGoEf6mpkmUVRpa1ViotBKaMVop8PHELPw3Ux6SpNeIlPA6msPBpJgJikdCVcdOMA9B1XU9HEhIK2MeotF2Ah1LdKcwhyXPA5KnYQQBuiMP5+ZjgdbJy5g4ZQBu7h7IeDnVUaWCCaG8cMxUYJVFmq75PRDAi2lNRrmwsxaqzcR/ICMATMDHU8aBRYBGsoPO4oUAYNYx4E1X2PJoPJ3tkfW9NOCCzuewH9yEafuiM0BbT/2sNbSganszUrd9ITKFJd9fgM2+NFq1pshhNk5xXn+37Ev/V9HDXKAY5mi9hVwCSHBqcWHzILzuln70l3APbw/1r2stvvz7e6y//7a5y9Ol8B5fEv);lineShape=1;" vertex="1" parent="1">
          <mxGeometry x="491.630639078629" y="240.92462491139713" width="24.44795567350161" height="28.236491647943694" as="geometry" />
        </mxCell>
        <mxCell id="mIeuOYbAj065qQ5HJTc6-20" value="" style="shape=stencil(lVnbblw3DPyafSV0oUTpOU3/I0Cc2qhrB47Ty993hIVOV9SeSfPmbMQjXobkkLrkD98eP319uKTw7f3t9feHv54+vz9e8i+XlJ5eHh/ent7x1yV/vOQPX17fHn57e/3+8vn676+fxsnx1x+vf44v/H2VixLrEErhn+sPqYldf/n1ev756eXmfJam6/kuWc/PF6nb+RjPz5to9vpU8v0uydbzJsXOz8coKawCRXonAlmisyBLJR6KKq2tAkFqIgImeVUJd4ZCBODCsggo9RGCbM4EsUzOq4TVqTFJJxbAha1vUSZOTVUsLQK5SWQ3IKqrgOITBEeAjVOpVCmNADv4KBTYQJCUk1dp3ECMznlTKUtiuVYkr8mpSAZmQ5XmBICkQASaNxqfKARKuUuJPtJGjNbosQq4VwJuTZLXG2ym+P3zKnmtGIGaDNz06r9PLIbL4/p9ZGdlCqEguvyPtCQVlIcVF8BiIi4qScKqEsLCVALOdPUplIwESEXF1qgVo8gD9J1KFWWQhKE0X7gtSydxqGH2mUOgSScVoCZp6w0t0EhDY12TwboEJlD8DVZFSUJX22zghbWiGa8q4ZdK0s0A/jXSlaPV4oTaEelGS/fQeFUJGaIEGqYTaodAlMBuqL6wAt6d3dCkrOADvBNxK4AQ1hoAdBWCpRZFXeCCKHFry97oAW/Sc5tOEw+VUFjZDeiIa+AAeNZCW/dEBpHOxOgepLkGV2hp7Wn65BBIM6XuC4BouBs4NDroZPQCrFR20IDibShMpb7RgEoLGQTqiiXwhsDc2n0C1UgLWQxHRzskCs3RccUaapQNhm8I2JpBqAuFwHW4ae1ZA98EfQiEb7tFlEdOmxdgGQQBV/ogwEaTbpMQ3thgzAbztdJ+gD7b6kyjfXcIuPKtE8BnAo6dAEyMhELAsRNUAeM3mMN3peMM4pBcjpY51J0JOP4DAVqYuh9aoRIj0hAoe5Njceh+zEWDaFygrzbUY4g6FXD1HqMvc2v31RgtiA00w2gnkGdkTt26JRCbQ3vzw70dg+CZQNyKABsGfl6gzPHlJkUbKwJ5uyHxuhQ9WkFw2AIBbTQ6gTZHlrPOrqtAqzQO+G9XBHCnMjqjPnDoxCzjBp1xNyDjmA2g2iu8h99IHIZPVgF8QpnAXls7LZWj32wDfiU2jI62ke/MuHTauqjSOACbuWxGswECJq43IPaM6ULjVH0cGJYqyLcT4FwDdc4ZPTo3Uyn52npDcO5LRE8TO+fGCKw6I4xui8q2FBjkl2ADHcqxvlboHqRsawrrlJKBOveNktGJOnrChNGPkekS5nR7s49iHE63Rq2F7042spGNwlUPNN+sQjITyL7vJqUZNNZL3avEclS3AVl1DuVnKzKHb4SysDVf8zeAbDDukKsnrshahtasfvNoiY6vee+KddKP+wL7gNzn8vL+frb7nbR1ulZPzS8S7Ujasx2z386gBZHAJbAdR42NMt2U5yh5QCPQZUtKvmeN5SPhcClMLnLzlsDG19h8k4Pf6HuI+SKQ01wi3xco/oVmwJGplD0lG0tkdkP01RtJy/Zw3WMPVYHFzXyhREazYXd7w1L+3rK9kSmnAdsbnHJGGfwDkyod4Y7np5vzgQQg+BIJ/3f6ffekppFuBIN/XgIguP5u/YGSzZjefr5MJvc/9VHKRzZ7kTJs/Nz8iabGOvkWLyCcLX03PCDn6ZPmT775/vg8/vjvgfnL0/Pz9X369v/9gzR+uj5m54//Ag==);lineShape=1;" vertex="1" parent="1">
          <mxGeometry x="503.99884738890205" y="246.84061971897313" width="172.0124355005105" height="24.83912586611018" as="geometry" />
        </mxCell>
        <mxCell id="mIeuOYbAj065qQ5HJTc6-31" value="" style="shape=stencil(lVfZUuNADPwav6pmpDmfgf0PqggbFyGhQtjj71dZ15iMbDfFmzHdk1GrdXiQu/f949tuYPd+OZ9edr/Hp8t+kPuBeTzud+fxok+DPAxy93w6736eTx/Hp+nvt8cr8vr0evp1PeHPxKuVhK8sdn+nN4FE/r/4MeEP4/EGX4S8dHifKaRtQmaKriNwohK2CclT6W8kmRz4hegplj6EAgnBU6gdIVaKdZsgTNLHkB0lv01gVaknFCYGsqqItSdUD/Pgk42hah4QIVL2PaGQREAI5ENPqC336wRPNVtCdtuESsFZfC3AGZR5gUd5Jl6cn0AAbJOmeMfbePVAtIoycIUjZ87PxCBe106b8YkEnO+Jjf4RWkJalcz40DyyXmiLfAVoaq1CsXiHHKeCVkvwQCC/KDMloLrUIrApiMSg8rXMrIcSeRRDomhEzeTRldIiCwWrpEkKllBQDEzZ+FTbHejAmgcullBBIeQm+jwT3Oz1DSfZNGinyKgybciVGGnUFLyRKIL7OPKms2Q4ENzi/AQ7y3fx0nr/jHfNhxud1PeVX1wbouv6lNZIGiHVJsF6AjKJGZkF9kad2Xav0OYFajno+DJjP7ao1j2UqZjFIjSjr48PvXHvIm0HKGjddYIhUAE3KsHOZI/7Y6Tanz83wHV8buP0E4+aV9FxVwwe7UW6cuRk8ch1Yjc1B/XUXpvF4APCL0znoP5a5EYfXfSAIeq89c0OwguOW0xwpoIE1bbZl5nA8fTdZfxrvD58bv7P4+EwfTjc/t9+Keir6StDHv4B);lineShape=1;" vertex="1" parent="1">
          <mxGeometry x="-0.15500672587359077" y="250.47326569754614" width="17.67871090913991" height="49.21032987840499" as="geometry" />
        </mxCell>
        <mxCell id="mIeuOYbAj065qQ5HJTc6-32" value="" style="shape=stencil(lVfLctswDPwaXTEEwec5Tf8jM3FqTV074zh9/H2haqiIkLyd3GQZKwILYAEO8vB2fHo9DN693a6X74df4/PtOMiXwfvxfDxcx5s+DfI4yMPL5Xr4dr28n5/n369Pk+X09OPyc/rC7xknnoqfUN79md84cu7fi6+z/Wk8r+yDUMnG3pf79rGQK509tw/s2mdPOXX2iTKwL9Hac6Qi9wGVSVwHUI98AoBItfaATAWEXKsNWWI7cxfAbuG8IZTmjHxSVnufovJWAUAo9ickjRr4VBKF0ANKq5T9xCWq0gGypibeByTlNXaAwlTBCTFYXksmDwDBU+xrW5MfgUviSLgHRPKA1kLB2FcYQiKXNvagWKWV8soeVhJV8/1CDOwdpT7JVdMOCNrUaQ0Ugf+O2CRAUxKQvWm1qh4C/r2t6lKJgVqot32+ivID/ElUzPczZcBnbV9b2VcG+dImzNahDBxiT7VYhhidEKxSVCzACgi9S1WgoCqATVHERts+QDZVlCkCteONZGtZV8CSpsGQVCkDxdY092lbKfK9Oor2gAgO8K1LVgEgIWJybBlysG9YbAoY9M22jwVOA+3CjZCiqc8tPau+TFjnTJ+psmId7f2Z+hIm+HP2PtpBUAIsCFHd7JW3ODg5gtZcD9ABymj65dbnC4DbNNmPOTUHlgkeKYAY8sL5slQEKBVFbOeHAMtaB7w5QQLUxxzagF92L9UWvFQYl7jAxUhDNFuI6lkGpRo2m5RqcgaJ0w07RAtAQ1O3kFQsQABLqnfO6BfDKaILbDIxOEirTzaGCuegZimZdiBBDsUmJx9bP6q8qT9NqZKAXtC/c98LQhX5n6z/Hut7trciblP0Xsak//6yie2XBNsMO7i3fPZW9397ffi4Qr6Mp9N8A13/b6+c+mq+rsrjXw==);lineShape=1;" vertex="1" parent="1">
          <mxGeometry x="9.30091636293946" y="252.8049581872922" width="29.7233586620639" height="35.024422834661664" as="geometry" />
        </mxCell>
        <mxCell id="mIeuOYbAj065qQ5HJTc6-33" value="" style="shape=stencil(lVfLctswDPwaXTEgQRLkOU3/IzNxak1dO+O4r78vVI1iPuKd+CZLWBPELrHgJA9v+6fX3eT57XI+fd/9np8v+0m+TN7Px/3uPF/saZLHSR5eTufdt/Pp5/F5/f36tEQuTz9Ov5Z/+LPiHDMxLzDPf9dXnrL8f/F1BRzmYwUohTg18c5TCQAQyWu7QCCHVnDE0gDEU/K3AVmo5AYQPEWQkiaSds/R9gBSSpmkXSFZlTIAMKlrAOoog5SiUCwtoFAptwEhkLY85EwMAFIoxAZQlDwCKBXfAjJ5BwCBQlulRSyAOF8ocg9ATHuhUHpAibcBTrea1AAFAN4+VwBlQFxPg8U7QLTfKlIVVUBCTK6LVwoJxftuw2kr8o18es4iJUByGuIDZZCPM91rDxBEmcl4WMEhUYStIDUACZu3BCpABBxIHEiwpgaKKnZQcs8CgwYj40lIUKe2QhpOc0GHM1IehKdoBdc3SVN2QMqOWxErQEZnrZBvG33lRh8j3q2mXgJoQ0mG04nEJ8TaFymBeKYoPQuoqIPZGs0o/3vjjaE2n6zkgE8tFLQF0vc3H5Osfb8zY4OmMKjCrFPAFsy7c8uxmXNAAPOMNiX7C0ZeG3sXsQEDNQxzc2nLakIpICXbonbKxkNScqRtSngKW2oYu3jkOmkYkRx0hZQotcJjmL/yVvFrfAC609B3VPM5IDvN/XiEG4WNhL7PH8YrJb0jH5tRNd6x36tffK6e1kZyOz9ivsow3GE93D32fwJgD9dbxst8OKyXlPp7fyuxV+uNRh7/AQ==);lineShape=1;" vertex="1" parent="1">
          <mxGeometry x="96.55873722464753" y="402.48991322605207" width="7.962432125542136" height="53.45346386982783" as="geometry" />
        </mxCell>
        <mxCell id="mIeuOYbAj065qQ5HJTc6-34" value="" style="shape=stencil(lVfZctswDPwavWJA8H5O0//ITJzaUzfOOE6Pvy9UDVUTjNbJmyxjhYOLBTj5u9f9w8tuEn69nE/fd78Oj5f95L9MIofn/e58uOjT5O8nf/d0Ou++nU9vz4/L75eH2XJ++nH6OX/h94IrFGQGCf9ZXjAx/3vxdTE/Hp6vzKVSsfalbNsHR9kZ+xS37aNQiJ+wT564/74jD+yztHCbvScP8i1Crnb2mYID9pUS9/EE8nUbUANJ70AjYpBBzeR8n4FQDABQKIUOEISSB4BKsfegp5ITBNQ+aT0WB0JyvLJsLaunipMoPaC65nQLYDxopTMCJJLcA7TSAgB+CKlQBdyo2ir9QWjhSgZkyrZ55koj9mmKYgEMclB6C9ukBdC1cKP/VVkr8JAHMlVpBN4CpNQBtKcEUENDyn1Ll9R8biVtAQGLQLSiNH8CHVyhyBbgEDUcJbGAG7IRetkoniIISemdDSDekg0jTJoVA6mfW9TQm6kinSnkTcetLbWVQzUeEnkUUqDU56A+A/LgqPTk0wZC80drkntqXGnbFplSsS7gSBGqgzBVFBM3kVgBEdJVW87qjM4gwL65qY1scJuTHwcIqhI3VVkHRCCHWo6t9OkMyqisg5LFAPV+Fqb+HEJoy9D7AJ0fPTfm7QlUKZXWwiuZCpxZOpft9qNNDSb1uI4pgEGPjvue7jOoR4d90q18fz/nJnNX9gGQW3Wv2Hgy+L7YIe0wLRyFXmKcwIHIVocdNynfsDdrSYHhD+YJMmiIRk8X0GFI1sOhM9ayKdPHjorhxjYwQRUCTfHPXVxumuvD/zvS0+F4XK5Y1//bO5W+Wu5j/v4v);lineShape=1;" vertex="1" parent="1">
          <mxGeometry x="100.89855621897573" y="436.88313365431077" width="24.955740145603386" height="27.000286694210445" as="geometry" />
        </mxCell>
        <mxCell id="mIeuOYbAj065qQ5HJTc6-35" value="" style="shape=stencil(rVbbbtswDP0avxISKVHSc9f9R4Gmi7EsKdJ0l78fM09ZRCcHG7A3x+GxRJ6LNMnD2/bpdTNxeDsdD5833+bn03aSDxPzvN9ujvPJniZ5nOTh5XDcfDoe3vfPy+/Xp3Pl+enL4ev5C98XXAyBQjjDOPxYXhWK+deLjwtgN++vAC1R0qGehYreB1ShKgMgMYV2H1CE2riCBmKwgq5aqIFquQ9ISiUNgJYpJQAQ0rGHVogBQGr/3gVQqQQAiFTiCGikgAdOFMcVrqi8iYhKOfklfi96m2rS6nuoDKZEEvyQEvh+8DwbCwqGuqK5GS1ASJGyIy1CpWYS16+tCCiIsTvlojsjGQFqF80FUKiBDmxLLXpABSuIkKy2JAhgEmgjoFFCJKeVioxHZDbLEx4B3BPhHoDHHixzKhC2bclNqSkp2lIgccqrMGEkUSjeOoKI0+72K0BD0mgU2ANqheJzsWqACACZ6ki0ubMBGmL3+tVQ0YzMK04XlgfQzcWxzN1//6U+ZipjA8VmDADGmcujbHYGE5LcB3452QIMPDtGXCIxw1MhVcqjjBS2kJofkrkVmDlz93qvly702/XqjWMqARxr7BLo9QGKWov3GT757arA7OrREWgKSOLqI2C45vX+FdRbFGpw80kgJtoquRiegBZTLiVSf3G7fqWHTBml0L/eBv8CYA9/Lp8v82633F2v//eXVXu1XHTl8Sc=);lineShape=1;" vertex="1" parent="1">
          <mxGeometry x="292.12671220735" y="428.30591952213786" width="6.563170659454499" height="25.613966562852966" as="geometry" />
        </mxCell>
        <mxCell id="mIeuOYbAj065qQ5HJTc6-36" value="" style="shape=stencil(hVdJchsxDHzNXFEAwfXsOP9wleVIFUVyycr2+0CZ4mSIkTq3EYUmiUZj4aRPH/uX990U+ON6OX/d/Ty8XveTfppCOJz2u8vhal+TPk/69Ha+7L5czt9Pr/Pv95eb5e3r2/nHbYdfMy6Rthso8O95oVHWvwufZ/Pj4bQyl0i5DPaZKrC3/etoH6iVx/baKIbBnomBfVKqG3t+bJ8rpebuX9Jj+xKppsFelGIDgNb9WxwWCgBQo/dYzQVAaS3Uxitpg5w2psoDIDFpAAAlrSNJTDECQKI0AopQBD605sNml4wgbgZocQRgIRkguBMSRRDpVqg4QKGETkiUR1rtTMG0cvOAhgDcb7wGAJZu0sgewBkANulpTseK1cqeVkVq1Q2tgSrQkgHqqCWjIYA42JUcwGioyIdMWUZAooZ8qJsTrAyiwJn6swcwKAItemkYQBEg9zCtfEB1qVWf08ZSACyZclylrA3mg/BSelehFsFHOH0br0Cu5kRwGZRxBmVSlxCVMvJa72RQQaVPuvyXBsG4BZmayiarI3DC9JrYO8E4Sat4mgRdSX2XMx4yalr3AAWcYG3RFUvrrAXkXDF1jrzm2Ld41KnjCEhL774PEN+0YuqF4dHskEeAFuhDFt+DQoQspUA8Bk5sPAGRjtLDtAIoOMFmCw+ocNqQpaet5hlBGeQ7e1Bcjb3LxpEA6ZmSi7dHLW4zXtl9Esg2605jAbCVBO4vvSiu+EER4D5fLwFocALlnrnrgIGCtCnCpogA91c34EY4AUgv6Yt9gGkWKIx8isA5zOqI2597Db+fM5uBBD5g/vvesY9/b6W3w/E4P7XW//u3lS3N7zJ9/gM=);lineShape=1;" vertex="1" parent="1">
          <mxGeometry x="298.7809796239849" y="430.99233817807" width="29.178159581832006" height="29.888951937354705" as="geometry" />
        </mxCell>
        <mxCell id="mIeuOYbAj065qQ5HJTc6-37" value="" style="shape=stencil(lVfbUuMwDP2avGpsyZblZxb+gxkKzdBtmVLY5e9xNpuARSvXb66rE+no7oFuXrf3L5sB3evpeHje/BkfTtuBfg2I4367OY6nchrodqCbx8Nx83Q8vO0f5t8v95PkdPp9eJ++8HfGZYHEEwrdx3wTwOd/F3ez/G7cf5cPwLGS9wKODUAEDBUAE4RgAlytgRIQmiZRqikkiBYHAqk5xwRimUSQaw6cFrdd4kC1hsQQyQAwZKkAEkDcZYB3DpyrEEUpJ0NF8WKtotxYkZO8WLACBMiwKa2ZsAIyoKGBSUeuACReBpTAYq6z78sPZxHkIWStIlmOTcCkWf+PzXnW4Fm7NXtDAXjFmYENeacpTxVlyJcCxVp+Tffz9tDijxWApoeQl+paAd6OmoeMGhAMDVHAux5AIgjUY5IwkO8hPVW09Lh1SjOlwY5bSTNRHOzEKBZL3ZUamSeou1IjtVkgqjjYxRMRuLM+V45XtoBSP5k0wGoy3i0D7co2hj8ssvtkbyPulSdwdfU0RkNpAHVaNGYP667dGG4Mvv5+Y3pG3VAb4zlA7pr/QW8wjQWjVHLXBuP1AmNvSKgXJAJv1RhIHV0ENIJVurUqSQ9kWYNLri/yDpLhTELdttxC/7zzizNQyVv1HiOIdMjzj4lv25OSnmY23zIIuvyZ12heF69p6+pJh+59vClfDl/L/+O4281vh+//68dCuZofGnT7CQ==);lineShape=1;" vertex="1" parent="1">
          <mxGeometry x="116.15196188559912" y="341.2108345934005" width="3.6960762288017577" height="42.66451925162596" as="geometry" />
        </mxCell>
        <mxCell id="mIeuOYbAj065qQ5HJTc6-38" value="" style="shape=stencil(lVbLctswDPwaXXdIgiDBc5L+R2bi1Jq4dsZx+vj7wtVICSgL09wkEksCiwXAge7e9o+vuyGFt8v59LL7NT5d9gPdDymNx/3uPF70a6CHge6eT+fd9/Pp/fg0/b8+Xi2vXz9OP68n/J5wraC2KyqFP9MKBUT6t/JtAhzG4ycAE4gMQBpq3AbkilQNoGU02QZQQxILEHB2AOqxBcQQEMI2IgU0G0TTS9M2ICZwtIAyh3WbJtQuhojs2OtusawyyHFoiW+2rzKfsHE+s7WPKE7WGM3aF0ZuLkHVMlrCvHI7BRHJRsAVwm6WM/cAT6mqI7YusaA4N6hSs01aSUgOqVoL2Uq7VLAjbS4QC6gZwZG2hthXW3CLhzPE0ioVxRFebnNtLUrVqJzayQnR3tA0aOcGolUD0I7h0JoIbQ1wMh0ZsfQuZYeluqpO9dFRRkJZkeqdrw3JSlWzVh2KdLerZoI4ssiItmmr7tyc3bL3e3aXgRgg3lSIc3zLDagOoVoInT257VELsXQtHtGzb30G/IFQGRJ7e6f9Suo1re3M4Uek94fmhnzTXvUYU8enOCWj00j6EYjmAZZ5twAYxZuAYTVylCM3hjanaAH4M+TLb5H/AOjHx9PneTwcppfT5/3+qaRL0zOLHv4C);lineShape=1;" vertex="1" parent="1">
          <mxGeometry x="110.96726629306727" y="346.0925417338028" width="6.953359837226117" height="9.314432222441837" as="geometry" />
        </mxCell>
        <mxCell id="mIeuOYbAj065qQ5HJTc6-39" value="" style="shape=stencil(lVbbchsxCP2afT0jkATSc5r+R2bi1J66ccZxevn7yt1Z29A1nb7JMmdBHDgw5Yf37dPbZuL0fjoevm5+7J5P2yl/mph3r9vNcXcapyk/Tvnh5XDcfDkePl6f599vT2fL8+nb4fv5Cz9nHFdQOqM4/ZpvMjj/ufg82+93rzf2hUFi7ElAdB8gBblaBxW53Qd0AVuAMnLgoTf0ZgEKqvcBlBKSfXRj1B646KBuAQ1JwkeIfUTPi891AEOyBQhakKamqM5DRw48NEJ3zF3zsIpQQXExjVQHTCihFv+IiAlRNLIADkOSCmFLhKDHALYeRh5yQLWI9zDSkIKOkA6xtaGxBy0g62GkoQfFpN3zMIKkiOqKpBZQ0aP6TijVhyRRfVffQZrQOWxS39UVpYQt12y5tgQNamkAxAGGkmgAGE+0Weq0pGEdULxWjjRoUBptdORfDSRBSC2juQbq6AFA26LWN4ASAfKiWxeAggMepC39daNkNRL8VUBQGiV56asNJZA+Zqj1MD5Rgn6oi2ot9qyLnq/ajxFoc8QlHA/kaR43UW0nsBUAGgIQ2rtmoxJW9kioHYiUwm5mH4+GA7d4lS8oAb+KYvXxskLcmc6+fuLg6cLN1T4aIdQ8WynceAaXLp4L3ev2/7lR/dt+HK7r28tuv5+3v9v//bo3ruZVMT/+Bg==);lineShape=1;" vertex="1" parent="1">
          <mxGeometry x="114.89306039293479" y="344.89268952946213" width="13.589264930086074" height="13.854080534418927" as="geometry" />
        </mxCell>
        <mxCell id="mIeuOYbAj065qQ5HJTc6-40" value="" style="shape=stencil(lVfbUttQDPwav2oknfszpf/BDKHJNCVMCL38feV6TH1ksyFvxtFypNVqdTyEu9f9w8tuUH69nE/fd78Oj5f9EL4Mqofn/e58uNjTEO6HcPd0Ou++nU9vz4/T3y8PY+T49OP0c/wPvydcrSRxRCn/md4oqfx78XWKPx6eF/FNKJYuXiK1CgCRUusPKMQZAmLuACGRNAjg1AFiJA0AEChrB0iBNEGA9idkoYBOUGLpARXTaqxzByiBSoQAV0OxTqI+KJWe1irUUNGZQl90LVRAH4SZuC+iWasVHFEoFA9o5WNAbVRqD6hUQSOMFA49oFEEReRAIXpA448BsZD2vC542EQE8QK3IyCxhTJ7gAJA8TNtLCXQaiHJvg0ZxDMFl0+mDPKJlF0+aRbjdj6mfdc1MxkA0OynwQABCCm+a38BQK6UbLpWKSGAza/vMk6p5tlSPlm0kRj5FlpHmfWudKVv43A5Wk0Y6ARdAUx5AFB1VTSWtvnobcOTdM740/OZKVV/RAVH2Py01XwikxEmKZ6mCoxSVwaAfXLTiMH6uTU+et8eVwOwYZGZj8XyKaBgs7zYz+fo5CAjtXFz+9C2PEhJTZirFS3A9AJT7ou+cgkwgPQ1XLlmaPMbd7zIgEuA1cB9SnZVUqSjNAt5cRkT5MRtHt/36UnESNpCtZeSQpJEPasyr/jt+OQ9TEjBJJi0S797eE5wO774+y1TRE1OXkYMCbWOhubika5NMmkVD/LP6s3L8gGKKEaH5yegtVa8ghgOcrX7lO8X4se2oNOPzALZjr/x++V6vD38/1h6OhyP07fW8nf/cWWvpg+zcP8X);lineShape=1;" vertex="1" parent="1">
          <mxGeometry x="312.92617774669975" y="347.42231157609444" width="4.150120897421857" height="69.39172972384449" as="geometry" />
        </mxCell>
        <mxCell id="mIeuOYbAj065qQ5HJTc6-41" value="" style="shape=stencil(lVbRbtswDPwavxISKYnSc9f9R4Cmi7EsKdJsa/++dA27odIc2jfF4Ukk73jSIHfPu83TduDwfD4df2//jw/n3SA/BubxsNuexrOtBrkf5O7xeNr+Oh3/Hh7m30+bKXJa/Tn+m3Z4mXFNqemE4vA6f4mFuLx/+TkD9uPhAqCVuDmANBK9DShMmh0g2xZ8GyCBQnSAliiBlLiQsgcocQYAJulOaBTBCVGXnqxdCpZlAAimoP0RpYK+XqVkXRLQJUrd/plqvB0fqCUfz1QAbWt5S3y1FoF8Aqnfv2bKYH+h4GVUjRRAgXHs47VRTYCA2DdoUi5IyHRfxAMUdpQjqfQnZCBsq4G7HoWF9c8Bq2RWgEDViaXUsVZI0KzxFQ2NGjoh9Dw0IWmgBjMYPzqtUAInmDKqL9omoQDlxUqtA5g0wPhHIb0CNNClSpX7jCrIKFHhvmQFPMer+DXDG7MWvfCa6QjOZuctpgoFs8MUO50KtPjvxosNgpdpUsqgQdlk6itmbNhqJXuKzY1Ah9TM0JcgUKS6mtt6IUCGzaw6Ow2UQf5mhp234OvGCM2pjwcKMsEwd/FIcSbI7C9xxvuXRZAf/awovi7tXuILRVDvdJn6fMx6gQtdXNcrYZEYMGYnJF+B2UYFJvHtl9QXALb4eLg9jvv9/O67/L9/6Nmn+ZEo928=);lineShape=1;" vertex="1" parent="1">
          <mxGeometry x="305.1830347094342" y="350.1619609856591" width="11.661980607527084" height="16.87000985184841" as="geometry" />
        </mxCell>
        <mxCell id="mIeuOYbAj065qQ5HJTc6-42" value="" style="shape=stencil(lZbJctswDIafRlcMSZBYzmn6HpmJU3vq2hnH3d6+cF0qAS3B05tE8SOx/IAw4cPb9ul1M5X0dj4dv25+7p7P2wk/TaXsDtvNaXe2pwkfJ3x4OZ42X07H74fn6/vr02Xn5enb8cflhF9XriA0uVAl/f63ApL/Lny+7t/vDh/2owCi258RSl0HmgHkL1AQXQe4QvYWVYac1gHlbkAHuIEGN6hCbQ6QBI1CQL1J0qAFTqsAe6c1QQ3CqmaxD6tWIA6ADMweYJAAEAIebtDwBsljpvVO4giyz4OFoQWJY/MheaABtXWABKrPg4WBMACoi3lOHIVRovnzDOQYkG7xLD7uYVhzWr00GCHHYa3eJDYtBU6bxaQOIA1NEoYkI1Aj8ZURMK8wAkwag9M1zLQpR7002FaCG3JKkDwhGGbO1Dw0JhGQIK5WYGnQNwJGTlhnHORKoAEgt/rWsLmai3noxu9xWFYTjxWhsThMnYlGJzgATDuoY5hSVEKLgKwDVXrRz3ptgIFJSD1PHWgpNKkkKB7AChJkzvrW8JOr/YRliyD780sOlWHl5cWdtVfU4n6zf9AFQQrOvymeXICDppSAik8ZtCie/fI5YX3qWE4wFK/RGmqaemeYjb/TKsYBw7wJ/s024AwtPi6xzLfn58Bb+9zaYH8O+tD/jmz399vD+3z4stvvr+Plx+/jPGlL11kUH/8A);lineShape=1;" vertex="1" parent="1">
          <mxGeometry x="314.7793531653749" y="356.78088545802007" width="15.189528027599408" height="16.402338765833292" as="geometry" />
        </mxCell>
        <mxCell id="mIeuOYbAj065qQ5HJTc6-44" value="" style="shape=stencil(lVfLbhsxDPyavRJ6kuI5Tf8jQJzaqGsHjtM2fx9uXTkr2p4gt31oVuQMOdRO+e5l/fC8mlJ4OR72P1d/No/H9ZS/TSltduvVYXO0qynfT/nuaX9Y/TjsX3ePp/vnh3nlfPVr/3v+wt8TTpUSz6gU3v4/IU7/Hnw/rd9udsv1icq4PipluQ1olYoMgCRUw22AiI8oF2oAwEIy7lAitXYbUIViGAGNJN4G5EY5DYCqpIClbAHoAOBGAbBUM9U4ACR3oq/TqiRtALRMGQC09NdnQKUIQlLxITUhBixpIx0BGqgA4QxQRlo1U0IhMYUxaa1QB6vWWEaA6VABrULBhaRYh0hp3CGGQAHVtzVE9FswAgSK1SeRQdbMPYAzgCGvnLtOCyFYASARZy91y3AHGXNoJgQoJsuBL8oV2kbswi4aooIchL2TtYSlTt4F7EkCSc8pXgAUAKxcdXSyVqiAHExXHquvMUmBLceOJatv0BAGaK40jAaUg3gdrEcDcOO51Fw/SO+QW7S2ix4NgCUrhBQ8ANmGjaB8sUMDtFrxeZbap4D4FUCR/nqhA+rplP2Qm/0eNFAkHb1VCpyiwZsMh96y17+fvVMW7cV4fYiaeY8mk5UikK0GqhdHjQhS4NKPLmfzLjAHky2OnlFwISWSsZBsSKOyqJ5UUwV5mHSJ+vpAisZb7Hx8rEdFZPbj4sezzVoz+e9H5C6RWNx6QfPc5GmOH8ZnGDf/zWGxPbojTIEjYbaFMR6G+S7OBucuI0VHpK8ezz9dbxcf/wJPm+329CuxfO//HezR6b8j378D);lineShape=1;" vertex="1" parent="1">
          <mxGeometry x="23.38340885659113" y="289.80321365001896" width="14.806198373420102" height="30.23058820286201" as="geometry" />
        </mxCell>
        <mxCell id="mIeuOYbAj065qQ5HJTc6-45" value="" style="shape=stencil(lVfZctswDPwav2JIghee0/Q/MhOn9jSNM47T4+8L1aVqQNY6fZNlrIgFFgc3fPe2e3jdblJ4Ox0PX7c/9o+n3YY/bVLav+y2x/1JnzZ8v+G7p8Nx++V4eH95PP9+fZgsp6dvh+/TF36ecUw5TaAUfo0XHP+8+Hw2f96/XJg3as2ZR2Ae9Wvd2EeSAuz1+9Y+kIR1++lz3j4g+0aBnT8xrdtzopYdXwF8WSiIse9U6rp9LtSL9Yep5nVASZQcgU4VnFA6ZRuhlMaZVwE1U7MUUqEKYtQ0RVZCSvpvFK4DKnH1ABSlHomDBWicEaBQswAOUHcSKVuXuFDsAFCpWNI5UgGJk0bdVo7mPoIoSSexgKJOIoB40kXfgCjFMBfLQFShiEgIdcu6YfUpINkTehu5XGMdrVwl30pEt3LVT5QGAIWyK7mAm4Z6EKI/ghkAFl1DeLxZk1+zPvU6krkGiBbQ2i2BOw5VGwPoZApgy0HVFFAi0pgEM0BrDkWJfSvLechrLQ/FplprjrE2go1SDmNerBVptqQzY3330a1ngFYQIi1UXJRUwLjkxHKohQSXnFiXWsGdSXxBdA00itLcrWd5J9w2mtfSFGiU6TKUMwNktM81abgpN3UelIf/BXTxk1r1GwAHDaLLQ++UQJR68CfoGKvAJZ2jaZE4VA86qd021rUGAUB3geQ4BCrApdLGxLnoSxAQKbmJkkjAlNMeIW5m6WQFrZJ1oliXqi5AaIeLfqIoKwGJS4tdoOTRRz64tepahybQci3WuEUEWOzd2owDmA+LvT73EYXrQfLXBrWvwD5RDd4+AF1Ev2jkCnfKOBrQbJ9gpw9+lDDmG/wewxnGc7FZ6YrbAN+lvVYm6PILfyKe/wu+8cbFzcdTxv7wsXQVeE1aqIHHrvsxseE76k1zffh3HX7aPz+fb9OX//vrs746X735/jc=);lineShape=1;" vertex="1" parent="1">
          <mxGeometry x="32.794637806174705" y="306.4545568212252" width="64.43799700752243" height="9.790173158811285" as="geometry" />
        </mxCell>
        <mxCell id="mIeuOYbAj065qQ5HJTc6-46" value="" style="shape=stencil(lZfbcttACIafRrcMC3u8TtP3yEyc2lM3zjju6e2Lqlnbi6q/kztF4dMCPyx40of3/dPbbhJ+v5xPX3c/D8+X/aSfJpHD6353PlzsadLHSR9eTufdl/Pp++vz8vfb02w5P307/Zi/8GvhAlONMyX8e3kjJPz3xefF/nh4vbMXpVAH+1CJAaCBah4PKJTDNhCZUhsALSRpG0hMMoYQCwXgUmaKZQCSnaDbQOHucQdyIQYuVcsqD0DJVGQbaLV73IEWiCMAGskYQxNSDDR3glIDOsxAGoFEqUJAR+Ga6VBg0OKASgllyZLogm4UGwAiteqBhlyy8g4rALkUSLMHkA51rcM1Df8G6grIVIEOBkTnUiLJEMjiSyODBrIYdFV8jNLKqxOsQ0DH2fckeYBRtUbisZbMyYKARC16oKEGKv4SmKNCxWfCqe/pirJkHmevgwIgMPe7905qRuXaKI9RWzFlUBsWRHFR194iW2nSVQcJcin5+94AmCalMub1Lg9bTdrEH5GQdNx7+C5qqLUB6SNAEaqjS1Upgo7IQml0qSgs8CReiKzw3oiBynhZJjsBdISN9jwqFxWm1ZYHHk9QcwnM0RD7XL4uDwrvjUBhtMcDxRaBUYTSR9iGOY8SZArA+1VzRhgse71wMtmPZ4H1E7r216ahiLTt+003t7sO1Y4f/UwB+J66iDdz1L/F7zr2daBq9XecbZQg762rcssMmpYf3Zj/b28Pt/X85XA8Ltv9/f/9Om+vlp8C+vgH);lineShape=1;" vertex="1" parent="1">
          <mxGeometry x="157.95656121752472" y="308.9522335004324" width="17.43404704731438" height="19.5418789166431" as="geometry" />
        </mxCell>
        <mxCell id="mIeuOYbAj065qQ5HJTc6-47" value="" style="shape=stencil(lZfbctowEIafxrc7u5JWh+s0fY/MhBSmFDKEtM3bR9SVQWv7Z3JnYD+0518e/MPb9ul1Mzh+O5+OPzd/ds/n7eC/Dc7tDtvNaXeuT4N/HPzDy/G0+XE6vh+ex8+vTxfLy9Ov4+/LP/wdOaXgLpDjj/ELpsL/vvg+mu93hxtzUYq+sxchTuuAS6SpA5wnAYCPxP0JXigCICilHggV0HVAI2nsAHWUwQmxxtCfED0VWQdSptIHnZQEALkQ9y7l0P5iESiZcu9S8ZTACaVQKD0QWlRrQDaAkoK0CjMx90SkmPERBkiUMOClBzKlCNOkJogpD8tAdYAtgEpdQ0w6A1AMOqtcwVlS4mABBoWohQ3RZkkwIGrrwMilChiXlModlwwQKN8Jut9Ltb/vpVUs4AMu3OwERgORWpluAdRL2e6ZCihYrrWubjajDs9oms2oAJeWZ9Rjn8psRv9LxhqgBsgUUG/UVTabIIdKnYnFAhnNaGoSNYnWNQ9rzSGzIc0oam0u3wAwr18FsrafJ4ApACBNrTBpCjctXpY5T7Hv11hdAtu1yqbRds1tQS9LtTSNmqQ6kQMxVOkvfW/4BF2qlwsj1a62F1gD9fqi/WaSSAUBNqsRCjVTDMYc9TaT6+NVODts70qhRbNm3reQb/K4Yi59Pzh4Eavd1RdX4FSK3fACNUdsc07HLTdCm42rOZJAb6uK90PVopk58D3YOwKTB3n/4p38rnl9uF7/X3b7/fj2cPu7fV2oX42vGv7xEw==);lineShape=1;" vertex="1" parent="1">
          <mxGeometry x="189.1493021614299" y="309.1466295247599" width="25.729956025487127" height="21.697484965640797" as="geometry" />
        </mxCell>
        <mxCell id="mIeuOYbAj065qQ5HJTc6-48" value="" style="shape=stencil(lVfLctswDPwaXTEA+D6n6X9kJk7tqWtnHLdN/r5UNVRNSNrUN1nGisBi8eDgHt72T6+7Qfntejl/3/0+PF/3g/syqB5O+93lcK1Pg3sc3MPL+bL7djn/PD1Pv1+fRsvx6cf51/iF9wnnKMkIUv6YXjAF9/fF18n8eDjdmIsn5zp7YXJxG6BKagCZ1G8DHFMOHUATMW8DPJOUDuAiJd0GBCaNHcAn8rINiELckxQyJRB0Eoo9IBZS4FIWSn3QqbSoVgGFLSAnCgEAMpXUAYonD2IohQL3gECMXCo2cRVQAK3C3BI7I2L7xtYRpRdTSZTBERUQfQ/IFHEQYmgq5BAgU4gWkIG+R4+zqSCGAq8I5cURiKZIodwVRCQRS1NCLgXKukgEEHgFGL2OqUbyq9pZyK+gEyLpQn5Qr7VL9IkYKyLBPHi1AEHqyyRsAYyCrqwvitRhfTtvAZ9UkM1DoIhoLYu+EeGEGAGG1tQ6yaZLpoIybMcrQdeqzXfRWuCEGBMnFlDQCUtpzK3qf8VX+y0S3yoAuJRzK/kZoDBxdeJoD8geFlCdadLnIfn2Zn3wZstSdK1TrY/2ZNt30Da715eHZDufr6MY0KrZdg2nsESlTpR+BNUVyqONqY723iUJcGZJI30miQRUNC8oag5umLu+JXko7DqZsjFX+HUz0DE31dyserAXsc2VwBHCdjIL7BJs+xZDIoV8MeZora2q8sacQagzETfmoIc6uwJzW2M2zO9a+j81rw//7hcvh+Nxup7c/m/vI/XVdJdxj38A);lineShape=1;" vertex="1" parent="1">
          <mxGeometry x="225.15123984474826" y="312.1547495126449" width="35.42619583679766" height="25.294312906574532" as="geometry" />
        </mxCell>
        <mxCell id="mIeuOYbAj065qQ5HJTc6-49" value="" style="shape=stencil(lVbbUuMwDP2avGpsyZbsZy7/wQyFZigtUwq7+/erkEmpVaKQN8fWiaSja0c379uHt02H4f10PLxs/vSPp21Htx1iv99ujv1JTx3ddXTzdDhuno+Hj/3j+P32MEgOp9fD5/CHvyMuAYUBhOHfeBGAy9fF/Si+6/cX4vpMpZGPArHOA6gA5QZACaoDyAFSC0gM4pjEGQgbAEcgR0NBEGkAUqCkeUDVZ24AlSChA6iQUgtIEMUFFAPIEPM8IIYAoQ1cZUBfRW1pqgIpugA2GsoUmjlAaHnVG3QiN/wvWEDxTBLglqYLHn5GMJS6SoWyiKucyMB1FU2ar7IqEBnQaFgIdbYltJBN+lwMYCFfGRKtqgjtEskC3MAJVJMbCNUvUr7SgH66olhAcfqGAoQsS8XzQUtObBwWNFiAQKBVJhWIfmeyTldfg9JKFsBealwHTr3yCug6Nc6t6rfJp/3Wo3UtoARrUklu12C0TYDF1ZBkmmkTIGs9OE5ThtwGLsWpj/w8IcTOICQQp4CibXwCmefFA0hsPYbqMKR7Axnx4PATptczPRBdY8ww9NtXsIOKFsTNjoSADpFhqo/zkHLbe5x0f29gfpgkG3F0mEE7YtV3xxhNQrbiTocjmwRqjNNMVi6bi+J6+N5rn/rdblyLL9/tHqxX4w5Nd/8B);lineShape=1;" vertex="1" parent="1">
          <mxGeometry x="239.0956777349602" y="308.101064519072" width="32.7553781238164" height="21.81163360637879" as="geometry" />
        </mxCell>
        <mxCell id="mIeuOYbAj065qQ5HJTc6-50" value="" style="shape=stencil(lVrZchs3EPwavqJwDY5nx/kPV1mOVFEkl6xcf5/esLAiGrvN8ptEYgDMTE/PAV7Spx+PX74/XKL/8f72+vvD309f3x8v6ZdLjE8vjw9vT+/465I+X9Knb69vD7+9vf758vX6//cv28rtrz9e/9p2+OcqF1zpm1D0/14/SK60/z/49br8+enlZnl0IU3LQ3Berq/z9qG5HM7X4/QyrY/mYjlfn53V+fredTtfb677eX10SayvLmbeP/Xz9c3VeT1u2Pz5+u5KnNfj/sKeH+beDZpcrEIgOps9UJxlsT4Pe+8HSECEwhfyLgiFQ3WJPDxMcLweFg3TegBIOADHe7p/cVUhNLg8Q2KzkIDEhuk5BhJOECoDAt4mgVwliIBSspE1F4STcWO6UrkjgK/nE6q5JtwAoLbZSrW7KMyawthvF4AnhVkTgBf4Sl5cCVZvnZVuwqypuzpfqWjyyoidGdsWXFdsZINMdk9HF4XSAEKflQYfdYEl8xxu8H0SVrLo/MyQgGMQOlhyPfEJXlC2GXMefK8izqozIuE+aP9YoLs0n5D74OVDAfiVsIQtFGuU5DxhqUvaK3kAYUdrHanxWKBwom1wpRJoLs2eRsQldaW+XMkG9x/ntsB+2JQW4KuwEglE6Yea+QTbo/xYAPmZPF2kWeuSTrYoF1b6YKEb9jYRQG3PZzcCKkTbklBykDVMiyPf7AJNKt0S53QrA7/HAtkVyg952O1YwNhKNY4YPBYAGc8nwNBd6bAwH7Rq6oTGvIQtVI5rnWu9bQtViwXWAVtkJYBq1fiEIHTo5sIc0zB0F47rhYkMVgpKoPGVKrbQAitrNOG43ke9eXOCFzkOAlZYoAsS6Gut0WSOg0AnP3jph+A9MxmCUNp1PQJMps1ESiBEvAi5zUyzXYFvlbP6XoDdoC+JgNhcXVmgKEc07saaLiv7krO2GNUnrAGh2hMIUHmPgFD9wyYwZxTwsyk/4EpUuPZ7AongWiWTQcCWGDWRsyDQSMDuRVCoi4BiMhDdEtSqCYIAdRyb0voE4vvNrHcEqGAK9+KhE5aSdhxClLBk907geKijuj4T4HgAurRZU/8pgcpYQlKKKh4KoxWfqH6gZ1dnpQHHrK4UXZuV3gytrIS8O0Pjhp+PJbwrmY+oIiC2RJ4XJVQR13jwg9xdVHlSuc+CWippAWttob4sWAAJh/qsekeHtPCMH3R7WojOjkB9L+vKwKkd9b2qvpGXy6x03pPScbneme9zliEHGqJ6Bk25YmMQHY3g0OQn1QUZk+vWXKoeJTFaSx3seSwQOWdtnZxqarxLVCZGSRtoLjOVupoF0L5SAEEgC3ijwWCBOIjkWCCyALrHKjxdPMMbZ6r21Rq34ECrCT9Y4Q5iG/AILJmNac/eKzaJVkvLLDHKGZZFbgiSH7RwNjDKnU9QCSI3bl+hgwkdsnHbhC3UwCinMfjY/VBlgsieSzIEUBSeTnXU5jcBpJROQCtl9jAaqdPx5lI7qAwUlwprizg1Na6LgC5c45JQQDxqRBvzeIrZzaprh5iYjAHHrgTCQvdJ9orRLwGURu179jzQaLxpcpYYKo9CQpcNckB+mE8IJp+M8DXxUtAtSsguJT5BEVlY5nCwm3pVC2F5ZqrjzJMGmYu+DfDyHavRDLiMHHZcCHD4IMZVpVH5NQFAUgOsdY5oMuVmfkvAejUV3APl5v6qFotcMwDXQWGCaT7uI7zD9QvLA0KqAPD8JFXl48wyLikSb8tyk2BYLpPke5ofmu22kXWzH+G9m2YUGmeWnJHpJZ94bgm9nJB4pivd6CyvvV5WaYEnQl4msTD6uBvLKFIYpHRjd3mZn/plwd3l+OPjRwzfnp6fr7+BuP2ef/SAj64/mEif/wM=);lineShape=1;" vertex="1" parent="1">
          <mxGeometry x="138.67766046236534" y="202.6681862742056" width="151.50828658185924" height="23.300403735541295" as="geometry" />
        </mxCell>
        <mxCell id="mIeuOYbAj065qQ5HJTc6-51" value="" style="shape=stencil(lVfLbhsxDPyavRIUqRfPafofAeLURl07cJw+/r5yDTkr7nqK3NbroZYiZ0bUpA9v26fXzST8dj4dv29+7Z7P20m/TCK7w3Zz2p3b06SPkz68HE+bb6fj++H5+vv16YK8PP04/rys8PsaJ0IslyjhP9c3TCX/e/H1it/vDjO8FsphwFcSgE+JQhrwoRDX+wG5/Z2HANH+ZjWgGOU6BhjVdD/AAiUdAtqmWEGAURpTiomK3Q8IzMQ8RLQ6xAg+IaRjWXOkInDXcdx1UQoB1FVJytg4psqg09kzw5hiASlRHMva6pbBFhJZ9XgDbYgUwwIPuiBUzeMLYF6jRfF4BT1jymOPrVIBBW2ccOsXMrg+J48PoD7saW2ZFOggUBxZbQnmL1SSxwvslyzWZ7B+oqoLPFi/kLLHK+BbpSQeX5Eme/Vm9UzIJqg4fhaYjy34VmF/a1fHDF+hHqurv0H9Zu8oDV+B8cbO3puzf9jeuqOQLj8ABbk0iAQsjvtqswIhQ2EK5vGCBewI1ywP4p2nNwJlgA8UFoQ2KEgxj1fQsM/ilb3j1kwCGpZyP+Ruh1KGFl0C6aiB3CgBWlyF0riHLD3J9QDrGpydxIIDbAyIBdpEVUoj7SJ3Z13ftFAYhanah6r1sjbaj07UtGpAybF4aTYuGjgKWqed1wXpYl2navRabl6NJiKlOPYt9plqHS/d2m41glJueDeitXEHNO2Cd0MjJYx3rAhwxmz7deYe4FnZ6unqw/00Wccnyurw6KwJ2efPcAoPtQt9hkfWZct8EB8ufGSfP6jnZ68p/8e3h4870ctuv79eqeb/+ztUe3W9f+njXw==);lineShape=1;" vertex="1" parent="1">
          <mxGeometry x="285.08126055797766" y="206.08993486994746" width="16.0349773490625" height="31.09517634816416" as="geometry" />
        </mxCell>
        <mxCell id="mIeuOYbAj065qQ5HJTc6-52" value="" style="shape=stencil(lVbLbuMwDPwaXwlRL0rnbvsfBZpujM0mRZq+/n7pNYxatD1pbo7NiTjkjMgu3L3uH192nXevl/Ppz+6jf7rsu/Cr874/7nfn/qJPXbjvwt3z6bz7fT69HZ/G3y+PQ+Tw9Pf0PvzD54hj58i5Aebd1/jKU43/XzyMgEN/nAFqIeYmnisVBwCZJDWAkCmjExJJbgBRKAsAMKU2paQphW1AKRRCA5BILm0DJFPyDaAKJQQIJLUF6JmAQxabUq3k6jYgyURxBsiAdMzkiwWgTodA1S0AZRvgmWq2AAFVYiaJFuBBlSL5RVUz0J6jaBgI1KrGSxufqQICkZKz8ZwBYU/OHJAogi6rGcMC4DxoWqRgShohZZWF+AUAcE6FvLcpIdIq7bwACEPz1GTLGoFSB3sagEAdiWZszKPXGqhS1gslW0BBfuYpgZm0IzBPciv2RCeEQq7lMLvL18WUJiXMj0ByVSUscoqo1RR5USXQuGWRymSQDX+6hZ89uPNW41E+nrglPGgR+FMrZK5tHT0C/MlC3JrhynDjbKV6ZXxqSmZ8XhnQStp0GW8AegBHE4+aoJRL22Wd14CxD3ayOTh2AlOuJj6hG89NLf2OZ5BPYmIbj2yWV/JB8cJUbsmnrOSD+JY67TY/q+cwYcyGB/ulnpWb9HDryvkDgD58b7jP/eEwLsjz73Yj1lfjNh3u/wE=);lineShape=1;" vertex="1" parent="1">
          <mxGeometry x="487.84675014959794" y="414.1163431797163" width="2.0433918570017795" height="30.023496386641682" as="geometry" />
        </mxCell>
        <mxCell id="mIeuOYbAj065qQ5HJTc6-53" value="" style="shape=stencil(lVfLbhsxDPyavRLUk+I5Tf8jQJzaqBsHjvv6+3JryLa46wlyW8szIkUORWpKD+/bp7fNFPn9dDx83/zePZ+2U/oyxbh73W6Ou5N9TelxSg8vh+Pm2/Hw8/X5/PvtaUbOXz8Ov+Yd/px5iRLPpMh/zwuROP1f+HqG73evN/CYKYcBz8R8H5+ZYnb4kgFeSWTAB2rhPr4ypdGfTAL2F8PruD9TLoDQur8XgtL88x6hmQNpICSmACw07Q5cjhB7UlYJGknrQCi5r6wTKsWRULWncZ3QqI1RaoUikEXgiww6Q4UySIQqqSM0isgnc1k8QUEi7G8Z4zpvoYAg1JInNBxXaU5MuBy0dHXemkA+ZWrsCQVkwghcF2ESQEhUl4nABJ8IoYIObRbGMM2BQ9rIvcJuCIxcKsTjLWArBWWukKonREQQ4rIg4BJi8YQPak4XFhrKtFINPkroKptLzklDKDRMWGRasYXqztCoInkrscu0UsJFHRZFLThxYVFxig5tUmsLAjq0iU89oSK1mrwXFmAeEkn0YS0oSlaizoLgKH2aYC1qDKt1iIbaonYhdIJcRoN1Qu1CuHS5Ai+yFv1VmS1uoOKstYexHlKkACxIpDy6ZNNSBImrpTecS4PI8LovQml0ycYTdPNlO8PoksDZIZmWxx5XurbW5z07ATs8qs/s/Zd+Sa2702eEGzjyxs9i0lvR+lTS03+Fo/QG30Rqn+RW4ezbYIW72xDoA48G4cU8ZcLBu3t4BDJgP8Un2C65D1rXR4ICFQc/UUQ4skTvTISd9ZMvlg/h9nF9HL3s9vvz2+r2f/+YsqXzQyw9/gM=);lineShape=1;" vertex="1" parent="1">
          <mxGeometry x="498.1001688449935" y="422.45938731234264" width="23.470613384466105" height="31.95663191738481" as="geometry" />
        </mxCell>
        <mxCell id="mIeuOYbAj065qQ5HJTc6-54" value="" style="shape=stencil(lVfLctswDPwaXTEgAb7OafofmYlTa+raGcd9/X2humxEMtqxb5KIFbHAAiAneXjbP73uJs9vl/Pp6+7n/HzZT/Jp8n4+7nfn+WJPkzxO8vByOu++nE/fj8/X99enxXJ5+nb6sfzh1xXnmIl5gXn+/e8Tufz3w+cr4DAfV4BSyMfGvlBG9p7YN/ZeKOg2IAdKLUCUOGwDUul30EguAYAnVxpAsF8AQAwk7Q7JUeZtQMik2gCypwQ4BEcht1FlyrINMIqpTVvJxCAPQ5rNPoM0uBqRlb0CBko62DsHdFHp/bdPkLCLFF0PiHEbYB71DFL9xYcAcaRxABQASFTywAHkQD2VMUhAeBoolx4QsCw64RmgeABQCp1LhQRIW3mIUqEIdrDqDQMgo8SlQUqFCsiDs+WW9KqrfYywahx9Apkz8eWBNKgGT6JDVEG1ce2567QBYXCtxbUugP9Cbqh+D2oh1QytlF2AvVPy2gMSAFh/6VWRoIysYfAIACmQQCX0gAxcUnPJ9UFCY8Gq0409Eu0Qa/GuAAko+25AGHRqFFDeeKg1poTGQiLXpsEmWwTKM+nlNqo2O9EOwiQth2U6o74d+x2W+Y/S4HtliMAGo7mPkrFSQDpo1fJth6Qgdfm2Q5j9P7QMmAo6j5iOfGcfwRixiHc6sqSAAEWpZ4l3ew/8ibnvvwwrLWmvOtzf7UiYer7I3s6cbrAH/liR8D18i9bl2+JpnUp6vihfy3SR6XY93H3qvwFgD++XjJf5cLjeUdbr/aXEPl0vNPL4Bw==);lineShape=1;" vertex="1" parent="1">
          <mxGeometry x="491.1671980161075" y="339.15713383321963" width="3.6818539730481916" height="71.4115356750101" as="geometry" />
        </mxCell>
        <mxCell id="mIeuOYbAj065qQ5HJTc6-55" value="" style="shape=stencil(lVbLctswDPwaXTEkQRLgOU3/IzNxak1dO+O4r78vVFWuCVnb5kbLuwQBLB4DP7ztn153Qwpvl/Pp8+77+HzZD/xhSGk87nfn8WKngR8Hfng5nXefzqevx+f59+vThJxOX07fpht+zLwYAoUw0VL4OX9i4vz7w8eZcBiPN4SWSXt8rKSAoEKhdoQkJG2bIJWa9i9qpGmbUAs17gglEcdtQmHKqSNUeySwwOwtaKZctwlRKElHaEoJEQpp6wltScx9ApOIJxQBhEgxe0IDTqt34UYr98NKefUiBXimwB7PBXhAKfiYCrg/UOx11IQakIV5Jx4fQM4Cqbu/UgLvT1Scv4UKwFulFY8PAC9UnIQyLLQYVgkzkyBApjkfUXsRsmCSyJ5QkYVrHd7ElIFIjSDOgiw63yKUFaEhH+rKB11K7z4hryw0ysjptKT1tnAY9GBKvZD+VZkWQ/UGGqxMWTWjAh4USdiHqIEkBN9/Df9HWVuV6Spf4JAKVKJXUYGV/z68aaL1DmiCI4qtvfelZkNLgAfZAtKnoARqQHVFSfsxywpzVnVptte5XKmiuVx8/7UwJOCDtKW9XS2QgKiqNezo8EjVagOhz0KE82PKUS/TAOeTrhpwIAYpsE0nenxE9zeqweGRvy35AWV4UDXWzbO/H/VSE32uDi+oDanfKCLccabx7vOFutDUpNzmiIfHe3fZ/yDY4e/q/DIeDvPmffu/X7Xt07ym8+Mv);lineShape=1;" vertex="1" parent="1">
          <mxGeometry x="479.2860984557142" y="340.11697631993434" width="8.592299957937485" height="29.182549625064667" as="geometry" />
        </mxCell>
        <mxCell id="mIeuOYbAj065qQ5HJTc6-56" value="" style="shape=stencil(lVbLctswDPwaXTHgmzyn6X9kJk6tiWNnHDePvy9UlbJAmdvJTaaxJLELLDi4u7f9w+tusPx2OZ+edx/j42U/uB+DteNxvzuPF/ka3P3g7p5O592v8+n38XH+/fowRU5fL6f3aYfPGZcpuwlk+WteMGTT34Wfc/hhPK7CJd4nHZ/JxD7AB/JRAZynwH1AiMRWAbynGPqAmMjqE2SLYPqAbCgEBUiyUvqAUoi9AhRLDiQtgKRZKo4SyMEwE7NGBLL4TsloQKRsASBT0bzKiskAkCjp0pAzrQOASDa0gAyyLiKsbwEFJe2IUwuIKGmzYUkKHlRfYYpFAxKuDSZjWx0MYok3OUhDIB2YQqOD0ICuZNqWkxVYGnZTrkwFseTJmRbgPQCETfFxNZJe8Xm/uRJKOlPiNumCe/Qf6ytakfVNtdkAfOWtB8iNDpEc0mHpr1XxJZTD4r2r8i7ohFj3WzVQQkqH6hGL31+tqtejLa8Ft5yt/bICGJQEb4TIxLjlvgdIvvrWMiHEBYAQkcnpDoq2GsntsSgp6g4Kpo6xmwCX6wBZxqIhA2iVQd5Unw2w5UxVaSGJGJi3cKobNEPRhCAtcoIKSI019EAH20xPbKlyGR3uqnyd8KxngoVSyczRzJia+22hKOndZQSB14urNngNR++vUD3tGo66N9YyX+0OfD21g0NmFSDym4/N/4bLx/Vd+zQeDvOzeP1/+w6WpfkN7e7/AA==);lineShape=1;" vertex="1" parent="1">
          <mxGeometry x="495.0447963561901" y="346.03876197712134" width="17.961514925630354" height="18.636720143681487" as="geometry" />
        </mxCell>
        <mxCell id="mIeuOYbAj065qQ5HJTc6-57" value="" style="shape=stencil(lVbbchoxDP2afdXYlm96TtP/yExIYUohQ0jb/H20pZ6u5eUU3hajY+tyJJ2JH962T6+bKbi38+n4ffNr93zeTvxlCmF32G5Ou7N+Tfw48cPL8bT5djq+H54vv1+fZsv568fx53zD7wvOO0fOzbDgPv4eUc1/Dr5eAPvdYQGQSqn09oUkAYAnzx2AE5VwHVAT5dwBYqHgAcAR+w6QhBJwqUTysQOURAkEnZkkdIAq7WQVMDvQu6R5iwhQKIsFSASAQNJnSYSiuw6ImnWxgAKyxLk5sACgSodC3AMW7FpFzNQZfKoFkIlqtfZJQAxUhxB8vW7vKAVbhQzudxSytfeASEzOxFsa2depTcVb+wBY4TOlvtlEq8igZsqKAVBAhrR5OQ8AkKIYGy2XLoEaJ08yBM2ARdo73llAQb0jrRcXZQuA2UlZEC2goBgiVZNWgS/EOmRJ2pvrAO2sYAECssSujbhbu1M3gfPDE4BMPhCPIwZVjtLQzoweaDxYlAEtq2G3qT2DpN5rH20NdC2gXvBseTQvHjQgxb4wcxe0p06Y0JdAl6dHA6DYEcYJjiQOlHuX/iMAWAVA7xJWGPrAYB/B+ld/jcBwbaus24tdCq5FtF7kTC4Ze0arnG0rO/LA/6zh2ftRW2Zpw+02+1Ko3uOP6i9v70fxqsBj6z/Kp45/l6fb66UzYVCoiA93S9obAPrxT0G/7Pb7iwBf/m8Vtx5d1Do/fgI=);lineShape=1;" vertex="1" parent="1">
          <mxGeometry x="305.31626028620894" y="491.12328308199835" width="2.5668908859388466" height="47.16810041138524" as="geometry" />
        </mxCell>
        <mxCell id="mIeuOYbAj065qQ5HJTc6-58" value="" style="shape=stencil(hVdJcttADHwNryhgdpwd5x+ushypokguWUns3wcMizIHFNs3LuiZQaOxzBAf3vZPr7sh8Nv1cv65+3t4vu6H+G0I4XDa7y6Hqz0N8XGIDy/ny+7H5fz79Dy9vz6NluPTr/OfcYX3CZeI0wgK/DF9qBT1/4fvk/nxcFqYS6TQ2ydsr1RrZx8ohW172z5wZ89U87Z9LMTi7Jm37VOal1vYt237HCn79VW27YuQqvc3bdtXptjzmUmQfaPcry9MDTjc8gqglEDE1AiPHSAyFbCDRtI+ZMl8BhxpIekBxrICp7X5IJcCAcI3FcwIO6VEsIVSCz0gU0BOqHdCKwlQtv1ufSDMrQKkbTQ5adieEJCo9DQteLiPCNTqaguQDioU2TtREU239FrQFJBelWL0gYhgBwOIA1iNAqFuN/3fAEKCnOa5xM2A8ZAVslR7MbWbgrdSKJYeYCwhMVmVEA9glNXF69sABSVEo9C8DxXtoN4H4y0huSqpC5zVDZyj2tduU3zGgOTUWigjWtsq5RrJF7Q6LRkNSEt5Xm8B0AKlkVZVoCGAzGFaAAQVAV7tUGHPNfXnVa1UkA93U1RBHO4DUE5XL76icM6wtujqUq4wRVvw4ksFiq8Zrf2RYsWt3bTUxyE02OWKnbhnSdrcAe4DmKQv91JgmcmBcu+DpHme2xqvSi8NGxiRNGx+q8UDGhoQda7ViyNFEIfRRdcVcaSrn4ht5EOjQ/bF3uxRd0hzgVjYo34VfakfZ2pwfptAHUGNGkhnIS6enwJqHvuiagxHUF/Y8zlqCBSw1ehmihDAJ/tGJQKzgP3MIwzXXzdzmJVhHsc/zeGF5M79C/SPL69r9vB51Xs5HI/TTXH5318N7dN0rYyP/wA=);lineShape=1;" vertex="1" parent="1">
          <mxGeometry x="305.76046866227784" y="521.4127163376959" width="22.36186248733543" height="18.806375307006192" as="geometry" />
        </mxCell>
        <mxCell id="mIeuOYbAj065qQ5HJTc6-59" value="" style="shape=stencil(lZbLbuMwDEW/xltCEvVcd9r/KNB0YkwmKdL09fdDjyHHoqNbdOcoPKJEUpcc+O51//iyG5x5vZxPf3Yf49NlP/CvwbnxuN+dx4t8DXw/8N3z6bz7fT69HZ/m3y+Pk+X09ff0Pu3wOXOecpggZ77mBUMl/V94mM0P43FlbiNFbuytp2L7ADti0wBsyfg+4JmCawBvqYQ+EAIl3wDBkwFHSpZsaoCYKbs+kBO52ACZKYI7lKyjWpgSuEMp5BXgyRcIaA+hbnE7ccaQaRNRIgV0CXGRWyDV5PeAYFsgUwSJkL9Lm2rZgjMEbNZAjgBIxG2qV3G4TUhQonaR0JnCJhOFHApTIN6EyaMwyQsrOhGMikOA9pHKrRhdOpBVQPjuDkElwtdb9cLqlAfGxZQ25cr1FfaA7DYA8rAU5woIQPumvCZ9aQd0Y6qczSO1GCgqrLFqVRdQHlI9ZA+IqrwzLo1CtlXXaQVJmRTzBkhIZ1LV0hVQUHnHTaZFBTBgkgaQWP4YyF7rTJZiAUeSjqN6UPLQQ3A6SmFJ5e0+aqqoLH00wTy4rGWGJdAAsE7LjAwPEdSS0Q4iFWiuBgF5CyCkRvcG0VkQH1NnhCU8tW575mqMgf1ZDtM+MwelxdTNljZFCUiX0a/ewoHHUmjzJO7AYVwN89UciZarSbyaowbLtURWu4Ozez16GZimH46z35rLx3Vyfh4Ph3nwXv+vJ21Zmqd0vv8H);lineShape=1;" vertex="1" parent="1">
          <mxGeometry x="355.12242369921523" y="307.1168797211378" width="30.054751900425572" height="22.463156122219743" as="geometry" />
        </mxCell>
        <mxCell id="mIeuOYbAj065qQ5HJTc6-60" value="" style="shape=stencil(lZbLctswDEW/RlsMCFB8rJP0PzwTp9bUtTOO0zZ/H6oa2iJk3cQ7WcYRwYtnpw9vu83rthN+O5+Ov7Z/h+fzrtPHTmQ47Lan4VyeOn3q9OHleNr+PB3fD8/T79fNaDk+/T7+Gb/wb+KUvB8h4Y/phSOJ/1/8mMz3w2FmHqkPrTlT1HV7l0laQPr6iZuAMjltAA0UZR3wSs41gM/keB3oE3HfAMGTAy7FRL49IQkxECknyu2ls6ecAJDJSwv09cw1IJoTQr3VGmBdCpRA4EYgt0CkgC6dKbWyFhl8hkBvgBI4DJjUGGUAkS4OhAWQceA43wWUelgA0KVILt516RKmaGXt0QmXcpkHDiVfAUwcypkeAnkBMCig4oAYlfqa8GuAdemLAkq1a82AhFMj5gWAk0+SvYMglTKFYIGELl1SzVlZUat0zMRsQ634EvaIIhzuAmGRfbAgljJdynwtEIktkFHrW4R6psN3synjSNwLxFIwZkKEGv3bMyjYsRguver2lHOk7a17pQhkkoVM4ycA4GKt4cukLoFALlFo+4wrYxSIxKTtpuGryivmToy5A+6XFGgjoHCALipHYI/kulFctyTUjrgqfTVXoCRTaM3LTgW/npMxV9Qm7PbCcD1ylIIxR8UlpGLNge9iK4uhMmonPt4271xmvzQvD9e9+WXY76e1e/6/3bPLq2lH16dP);lineShape=1;" vertex="1" parent="1">
          <mxGeometry x="384.12206208075963" y="301.1169132141881" width="46.50984044348729" height="29.32185206119425" as="geometry" />
        </mxCell>
        <mxCell id="mIeuOYbAj065qQ5HJTc6-61" value="" style="shape=stencil(lZbbchsxCIafZm8ZJHRA12n6HpmJU+/UtTOO08PbV9uN7IVd4eZuI/MFAT+ggR7e9k+vu8Hj2+V8+r77NT5f9gN9Gbwfj/vdebzUr4EeB3p4OZ13386n9+Pz/Pfr02Q5ff04/Zz+w++ZC5DzBHn8Mx8gFPfv4OtsfhiPC3MXAL2wdw5S6AOEEFEAnsFzHwgM6AQQIrjUB1KCJK+UCHzuA5zAsQDYAcU+UBi4CKBQi2obKBCkhxLAFxNgWYYSgQwPDhFQ5rUkCEYhNlxkiEaapiBU1AzRCoKbdK5AATJKXQGXNcDWlTJQkuq75WGbSC3GhYtsqKnmXaeptFv2gA/tLNJk1joCBl0ITzawKjVaeY3gVSECFDuGlDTw0ee9tJLyQEAWkNuNr4CHYvVcXvVcBSx98yoGMltoEucqS6aWrspZptWKoUBRQdfC3QHW0rCvlNbis5vayWE5ndizL9CqgezCJRnDf/Qor1ywpe+axaKBYHv4HMAEQWqD6+gx8lpXTlZLqJjqq0sN5ZyJdQkZU8DnNksbQAGiAbi6edWqrj1ldJADJ8dMbknYNEdI0rzuYWPsIXgpi9iq3jFXQzIAG2N7tQ3pjrmTivOm4FD3gDPHKeoV4tqDo5P3IENFcy97rWU095OHzMrcakbSSx+bTrdl3J5mN3Nr43/ytXnXvH7cHrYv4+Ewv4uXv+uHcD2aH9H0+Bc=);lineShape=1;" vertex="1" parent="1">
          <mxGeometry x="440.0978759965951" y="310.0967595394018" width="30.78516650390611" height="21.732454562164776" as="geometry" />
        </mxCell>
        <mxCell id="mIeuOYbAj065qQ5HJTc6-62" value="" style="shape=stencil(lVfLctswDPwaXTEkQfBxTtP/yEyc2lPXzjhum/x9oWqomKC9bm+yjBWBBRYAJ3542z69bqbg3s6n4/fN793zeTvxlymE3WG7Oe3O+jTx48QPL8fT5tvp+PPwvPx+fZot56cfx1/zF94XXBWqZUYF97G8yVTq3xdfF/v97nBhn4Vi7Ox9pBBvA0TI9QcER6ncBkSm5HqAkAcucaDSu8SenNwGBKYsPaCQy7cBvpLPHSAmcgkAimVVIiUAUJekdykFqgCgIYYekEPj7Tqt0bpUIowh+eZxA9Q7APXY9wBNHHApMXFPa00U0AlMzpyQKTKMoZgYCkVQS8mR4x5QicEJkikPgAKKT/Xg+zx4p4cCmkQTm+0RGZSrOKtRBXgkuUI5WpoCoCnmAZApoOrLtr411S5AlwxNWn0FBB0riWGJqYCgxZMUC/Cok8WWphUQGg3XAYkkDQAPAHWob4aNSevbVQvIWKOWpdgK+KZGB1GjPCggGEFk2I3VJTYAzT2KwTUSL8rboUwXkkEPMA9amwOgAj0It65y2QUQwJMf2kYELml5W1oLJSSg2sbyPwLYNQfWAZHbyLg+5HTwhw6gy0FCvbLJa51xAhufs3pTBQr4vmtdcZ3SDNOss6P3n3UKA4Z0qmezyggFoAXdTIx49BOC+qpYSu9sV8pg6E/QRgsoLcP0cbBfaAkM9mhCF52W1t6BFFRdMsTaA//nnp6sP4CfuVkN8YIS0l4lvZB9K5Lr9qXJfC0JCkAzn41nrbm2x10vOTeIIMLJPB/Qi0yIEUG6qZrFkxgFnO0ykuFy/r/3i/v2+vB5mXnZ7ffLXejyf3v50VfLxYkf/wA=);lineShape=1;" vertex="1" parent="1">
          <mxGeometry x="154.7132921260643" y="342.9370618419953" width="11.356602318639716" height="24.587324950163293" as="geometry" />
        </mxCell>
        <mxCell id="mIeuOYbAj065qQ5HJTc6-63" value="" style="shape=stencil(lVjbUhsxDP2avGpsyxf5mdL/YIZQMqWEAXr7+8oN3iIte5K+bTY6a0lHV+/46uX+5mm/S+Hl9fn4df/zcPt6v+NPu5QOj/f758OrPu34esdXd8fn/Zfn4/fH29Pvp5shOZ6+HX+ML/w64QK1MkAp/J4vQvj74vNJ/OHw+E68UGpOvADxGEiSkU/EAuQzSTDymXIE8p1SNvKVKvh+YpJu5DuFBOSFKhv5GKEBzMRWoVgoVABo1MUC1Ka+DciJsmVMjXrj8GNApWZtUKsYcRyoW9I4kQCji0ZFtIBGGQE61WppThQAoGaK1ksZE12Fsg3U3KkDL7XkiStpKvkxoFCzoaRuiBkAhMQSVypFwLREqskD3sLxY4B6aXVCRoBK3LwNBdggQsnyUDKMVlGvOy8xzLgeJ68LIELiOs9gXgAavw0AVjVGT2DgpV598CkAubVrUcnerQkD2J3QZqHdAlRLXFWVAHEKEHtCbZC4viKu5XM2OIDGbwG1e6hkbdDoYqxSteGtVMYzbrVlpgtM0UGcLWQx4H6oH3SVTL8BrZYZawtgqc9bgGDdpCnSkRHN9zgpVM8AbJ3RUgVtUIA1ukUcruL9qgW9Ybcme4K2DNRRFFBcJauzGG4BXJPTHA045dLqBMbBVMTbIGdy1KpUC2wQI+Wa5wGd8C6aF0SniIjo3k2Cm5YC3LTR07mszi6DGgWc1dGd0HF8CzXxAJhB/w1Qn9j41soEk1r/jt5Lgtriqsv1ADv1uo9qKy5gnll3allmqAtnAWkUEWA1bWhhEpCjY56xfVSW3r05MUUPSMCtYyZz4a3DNLBhTH1OpTSp3JwrLXES5s6yObm6atyogFgas7E1enRqwLSWoWKZrss4sTXfOx60MAWQ0zqBuVG3arQCHsY07+p9mXvR1hbEbq7UAQioNPYs69as0QpU0k0u2RMyw1Fg7IqWacY9ayyj1mhVkoFKYzN0e5bOlSCBdJ1uNuPGfgqYHvu6syFOJS+7D+AA02F13aDfRwkafFsf3wf6BMpWf13w0agepv8WeTwWB997xgUFcGjwm0CKcAJd9efYYFiv5Rk2npU+yjiaelb21ln/LnMnz6y7jK04d+rLgiHMq5DLYg2P8mfF9eHfLdrd4eHhdAn3/n9/66avTjd2fP0H);lineShape=1;" vertex="1" parent="1">
          <mxGeometry x="159.15713383321963" y="358.15094801084433" width="112.010045517967" height="5.439956618734641" as="geometry" />
        </mxCell>
        <mxCell id="mIeuOYbAj065qQ5HJTc6-64" value="" style="shape=stencil(lVbZTsNADPyavFre9Z7PHP+BRKERpUWlXH+Poygl6zRT8ZZsPPE1Y28nN+/bh7dN5/n9dDy8bL76x9O2k9vO+36/3Rz7kz51ctfJzdPhuHk+Hj72j+P728NgOTy9Hj6HP3yPuEJVBpDnn/HAE48H96P5rt/PzPWz49aeKft1gGQKvgHoSU3rgJCphAYQCqWyDoiVQptCYnJ5HZADSQvQkwA81ELchlS1DA4Aqq1SFeIKAbm0gHOQFwGOmdi4iLARg4vYAvIU5RqADaDAmPR/NbeASh7VNVESCyiAG5qiaz3M6nAZIZSDdYHYpJ0NxWZdIwA4isHWtQD6KYBdC0gUEYCnAGatRgRXD2IAQgVxQ+lcLcET8iAkptWOCuJGoLwABNS4RD4sAEhzmZJfhIRyKJQXSWeUgzJnoeqKFVQNlyJ5xCWlvwGoRDDAjLJBhAEmLcnqAQooL0aZDhLUh0ip9XBVo4H8wgUkk58aOx80/waAMqVit1bRnQIUFFUQLSDFaY9dXnPK5lajUSc+GEzClMxeFIqgES7Yveh1Q4DpylPRz2uRBGTA02w/Z3zF3OyrCDuwMA9w42owrZZ134J2sb1jeGju7J5ycP7q7GwHPFME7JRJT3/mDpgHKtWYI3Ul4mz/Duquci82dmBeyEVbGUDif942r5rrw9/F9qnf7cZ78fy7vQjr0XiJlrtf);lineShape=1;" vertex="1" parent="1">
          <mxGeometry x="136.07704527522424" y="231.0704788049021" width="18.905217905659356" height="19.83501347953927" as="geometry" />
        </mxCell>
        <mxCell id="mIeuOYbAj065qQ5HJTc6-65" value="" style="shape=stencil(lZfdbtswDIWfxreEROr3uuveo0DTxViWFGm2tW8/Gp7diIpP0DvH4WeJhxRJDfLwtn963Q3s3i7n08/d3/H5sh/k28A8Hve783jRp0EeB3l4OZ13P86n38fn+ffr02Q5Pf06/Zm+8D5zQiFPELuP+YWjOL/4PpsfxuOVuWeqsbH3jhgAHKm4BpiW9NuABMrSAMIUZBsIwboQmLhuAzFQrA0QmTLwIQXrQ1pluAnkQI4bIDO5sA0UT9EAlTwCMvkWKIEEyFp1hdaHUsglABQqbRyqUC4AqEuYVkAjgwG7QoSp4Z0j1zpR0xL8rSVqK1PNFIGuCpjcUB0iyD4F/qu4AhUHopBkCxQGQKbUOn2lw20idcKuUm8BvgME7SnaPU0yIV3jUiWuA4HSL5IvXahRNkWStjJN2YR9yAbQfAV1QzcgoTsRCMjksgUEAyV2AApc6eIglJDTlbhzmjGQ2crq8KmuxmnNLnQgekCLG1Kp2g6hMtzxwTpdsQ8qq7dAuhO4rgpUtEJeNnANIB9Sl9516RlfAEAuFdWkSz6PgGCd1pZSgEra00zpK0IRpEb2tvHmtHzidqdmiq0PKZOAUqmdn1sfoiYfAHS28C0QEmU0zzBJG2lJMNK81oh1Ysowl3QCC+0KPkDAUW1VjbCJuiVGq8fLgd0wZzHmAgq9s1mnBQx+3UwAOomBvuPsMWNYKXTvRknY1ZwdFhwcC/Vfa446mqeQjLkHQvol5p/maEhgOw+6ZWa9ncbkvDFnlPVfu1bcNdeHzxvMy3g4zBeg6//tjUdfzbclefwH);lineShape=1;" vertex="1" parent="1">
          <mxGeometry x="150.12981228548324" y="231.13356444239366" width="39.81451865092686" height="28.71976868780166" as="geometry" />
        </mxCell>
        <mxCell id="mIeuOYbAj065qQ5HJTc6-66" value="" style="shape=stencil(lZdLctswDIZPoy0GBPhcp+k9MhOn9tS1M47bJrcvVQ1lEbL+NjuFwUeAeHvQh7f90+tuEH67Xs7fd78Pz9f9oF8GkcNpv7scrvVr0MdBH17Ol923y/nn6Xn6+/VplBy/fpx/jTe8T5ySyggJf0wHTNH/Pfg6iR8Pp4W4E2Lu5F0FeBuQQL5XIJ5i3gY0UPIdUE/EbQM+UYgd4CMVYFIolHugnnDZBpKn3JuUlDIAciHfAzmR122gFJLepBKJAwTiCgggcBUofRxKIpdApJltqCuRATGqMEBuodl8hPZAgTaNbnIWiMhNmWKxQEGByOR6kxZ+uE/U9MtWRUYqqt/ZAh65KdqKqFYWUBG3VFgAgjWEVXIE5NfYaniRfhlUdb2PnQUUu9WbBA+w5uoTbboGiiiZanKmFYA0lFXgQiuqLcDGoT4aF0QOFii4DRST36nV1CZgNGRSDCS1QEGRLu2Ji/QOKFtz6yrLAkJeynZm/UeNppVNsIISSbAAGnOfBupAUJMbDDtTktbp5iE0X3F/zCULRIHt2Afr18DkgZdU21CbR3Vurer+MqDEZhmojQlNLbs8ON/68135eXmZVwFS8ABuqT/bDxOPyTkjjkpnNT+FEqhlth1SyEFxO6haO9t6ajTiDBzPtr/jLa9eZsUF7RYU1Igz8Ptq58TVLuStMQwalrSyu4mjwfTJhfmf4vXjtpu/HI7HabVf/t/u8vVo+h2gj38A);lineShape=1;" vertex="1" parent="1">
          <mxGeometry x="182.1401936719658" y="232.1352291734222" width="43.451032076440015" height="34.892711793495664" as="geometry" />
        </mxCell>
        <mxCell id="mIeuOYbAj065qQ5HJTc6-67" value="" style="shape=stencil(lVfLctswDPwaXTEgwec5Tf8jM3FqT1074zh9/H2haqiIkLWpbxKIFQhgF6QGeXjbP73uBs9v18v5++7X4fm6H+TL4P3htN9dDld9GuRxkIeX82X37XJ+Pz1P769Po+f49OP8c/zC7wkXqPII8vxnMjhy7p/h6+R+PJwW7m5ebv6VUtj2956KdP5qCX4bIJ5c6ABqEQAInmLpAEEoyDYgCqXUAWKgDAApEscOoJaStgF5Xm6A0RK3ASVR6bugFgZbqoVCD6hCtQJAtWWtgWKGgNSXtUaSAgE194BEApK+Acgk922pkADy3UhaLWhL67JWSA3dcewjOGZiBojU9LIIUVESSh1nARGwTwFObJkq2lKglC2AgeQUEEwjMqZrsBrVMjAYMwqovYI0K0bsi43NC35Dbig5TQSBotYUfbCAjMpaVn3QCIjf2ia/ygErKMqqSngKmGk/9gF0esHm/211XdG1fAaQYAEVcaPY+T3WAdU12zNorAOqa2qKvEPVXGyIjCR0L6BIW54B3Bh8+xDylPsIhcmDuibXzqj51GI4LSNbCUXtHBCp6PTtASFTAhF8sRNfdHyi60m1IvWJMogwk3nutMAAvLo7kAfk1orXPmGKQJ9Ksn6I4ZG00qaQAyTlNhvm2sAJyW32fNwME0w1G83ACe/I919nitC9WHcHJK93QjbuSL7SPrZwR3dUKt64I2HpaelsqoAEd97IP3XXh4/L/8vheJz+HZbr9mdBTdOPhjz+BQ==);lineShape=1;" vertex="1" parent="1">
          <mxGeometry x="227.1348199253091" y="239.13898465697662" width="31.103175120900914" height="27.19581480701504" as="geometry" />
        </mxCell>
        <mxCell id="mIeuOYbAj065qQ5HJTc6-68" value="" style="shape=stencil(rZbbbtswDIafxrcEJep43XXvUaDpYixLijTd1rcvPUNJRMd/NmB3jsJPFM8c5OFt+/S6GTy/nY6H75tf4/NpO8iXwftxv90cx5N+DfI4yMPL4bj5djy875/n369Pk+T09ePwc7rh98wFSn6CPH/MB0yF/xx8ncV34/5K3Au50skrENw6EJiEO0AKubgORKbcawgFPin5dl8DEhP7dSALhdoB2ZEHGkqklDugeCqyDtRCMXVAFeIKgEp+ASCjFcgGCM1vNwHH6pQ+EDVSBW5SFbX3a83kQKgVSNIDhTwGuPernjj0pELiLZADADKFXsOVH24TiRJbFQU4Vr1YFoBgwCXrppgBoJFdBCKi9AsLGxIJqLlJQ7C54e7YYJ4UyKEnRVvVmuCCciM1n5wBrTkEaKiDBRJya7GdSYE7BcHR2gDjUG1zVS8FDNiSi1DDrapOlLER2fg1U0m4NZnIaT9GyaTZ3LdXvQLmd170MvUDelJqFfn3gI1cbY/8P8A0EHqjS4EzJbPNjawZD0ouahz6/E6xzbHbkzfbthEDCWiWou291xB0CIFccrVlznkZSORBpF3r7mcTqALxhYsSbBlsZ6jWDhQ3IT6vQmviZo+hBMLF1lTfknxFPPS3O6oge7jF5SLuwO2OpPcMw4JU3dWIo2Hg7XaEJ6wsH8OgnYS2y13EBYTpH/fZu+L6cVmdX8bdbt68r/+3q7YezWu6PH4C);lineShape=1;" vertex="1" parent="1">
          <mxGeometry x="264.0808815590401" y="249.08186120787832" width="32.062844633610666" height="23.645510010945372" as="geometry" />
        </mxCell>
        <mxCell id="mIeuOYbAj065qQ5HJTc6-69" value="" style="shape=stencil(lVrZbhw3EPwavRIkm+ez4/yHAcuREEUyZOX6+9RkwdGwOFOC3+Q1ezl9VVX37J19+vHw5fv9XfQ/3l5ffr//+/Hr28Od/XIX4+Pzw/3r4xv+urPPd/bp28vr/W+vL38+f739+/uX7eT21x8vf23f8M/NLrgSN6Po/719YK7Z/x/8ejv+9Ph8OB5dKNPx0JyP6nxJ0/lYnPnr8+ZCnh8nuVzU+Rqm8ym6mK7PJ2fz86fuSrg+n51v0/mM5xfxya7O50twUfhbne/z+eRavj7fXJv9LdElEZ/u2uxv7i6JfAXvGjmMEIgLQnC9ckSb8DhE12eXk41Pzg3w37MPVmWMAkJINY2iUAbZ5fmRkBcV1VBcorI2WRahujyHNXpnVRgg0fMNoTsTUcL3xco3VGUQuFTRHEU4vbk432AoFnUDKmf2wdpAm3OD4qrNpVFl96AdbE7c1p5NwIV3nvonOxOlYYiSnwyqBkgzLo2GO0WmLTOkNhuZOTdAlGaMbEk/UnOh8g0qDwZM9OxDEZlO3vW5lmp2XcAqUNrmFi24U0QJGJEIKNHTolpTcmmOUgaTiFpKeyHsxVcGuZwbFBcJZtpAqnODBexRXaqBUhvQe2BP6XTnfkDTFlFLGRhBqJEGw5wbQADQDbhTGRhjq+kWRZqYH5LkB7R8mnt6+wrF0aCP2emy9+C5AVyce7qiuoQPxTO2NugsATNlJ6jdoEpCKTYachh0Lxtoc3HG1h5Gl58blCG8DjdUIa3KrgR3H/CJ8qEvUGlDfZyLpSWstQ3WOzeAOJnDik9UP9TIWgN6LIvie2eDvfjgtBJ8aejN3SC6rHzIbABYUOKkFpYOG4uqGxr3NHAkKR86kyI6LoiwovoZvSFXlIGxEig7650blCH7DzytaBe12YjYmwQytIsRKcYxrJwb2MKiiJK6YSGUphVZ74t08C6LjoMBcRwMFKHAIC8GSobCgBIHgy60BgwIjFEsSrfCgAYO5EFpjeD96MhjIlTm1iuybIjNCcJ7oKf2msNUP4orJ6JKkttSTbXRZEOcFFOVg1xvTNQwkGFtS6rLQJ4rg9o5D151UFt41yRsbI9EeYi6g+A0cVaQUmAL66KllayEQexsIIGpM7huBrpaS10e6YPytsVpXUscJYT1J3t0p4DLK8hrLRM3g5lHt+rTTnD1ob6FANriGtngAyj7SYPCTL2JOGVgQyocDCTgB57Zm9YCQBWas9CjkqnzElYv510UAjkNDaUoBd9H+x8oTS8eqbZF9ZnrSgAVrqWspS5EHCumLtX35uKcBwhRhZUwoAaqOqyQuoTGCEMSPQrpnKk0siy+uixb+r4svJogaHztmkYhCguV9z5TnBskzvQBea4GrUhzUxu7i3ODwLKvJ7lBhRT2ixaoIkyotbxQShCPhAm5zzcgNU3dkHmkhlfyhmVHi6km6j1CXqb8IjKXw4Chw7ZFbYG3xf6sBczGYHS1baERwupowqt9Di1E4YNabaTCaLytU9SKKQ/WPMBGVzeksd3fE6erNRnLE2BbVmFdyhv4rGDDOu8GQRkKNpBXGrQ2khN5sLJ0XNSPlJiCuhZAFsee7qAd1GsU86xOMDOrvVrsPPsBblUtxcoDQYn6hsw+YGhXWBnTshYokndj5GpNfkjTq1cQvBDNMtOhM8mZFqLbexcyiGMldG5QeOUKH9RqI+QlSpoVQ+I5K0fZosGGeDmIDaUSQ+BpFLSn9v3BcwNt1K3GprG8OSxblOarLJe21wOKdFkX47waRfMogsPzKLpKY8Y7oKRSxfCOUDVKSo+8P8h6ixj53R06zdT7R37rDcz0qkgHFx+W9uqtuuftRPRSrS4KRr85WWa9PGaIq+Nz9PWy0fMr+yhFp+f+DbI0/VjLvx9Xv3/wDIl6feZ5TPBjHLs43pfj6tU7w61e/gWuyn2uujieODJFvRJn/opy1/mTv1P58Dj+eP9JzLfHp6fbL2qO/88/ocFHt5/f2Of/AA==);lineShape=1;" vertex="1" parent="1">
          <mxGeometry x="324.7935432950494" y="207.79750962140668" width="145.85171596668442" height="22.816279630128975" as="geometry" />
        </mxCell>
        <mxCell id="mIeuOYbAj065qQ5HJTc6-70" value="" style="shape=stencil(rVfbchoxDP0aXjWWbMv2c5r+R2ZCClMKGUJ6+ftqSw1Yy55MZ/q2LEdr3Y50vIoPb5un1/VKwtvpePi6/rF9Pm1W8dNKZLvfrI/bkz2t4uMqPrwcjusvx8P7/vn8+/VpQk5P3w7fpy/8PNtxotgmKwm/zm8CZfnz4vMZv9vub/AipHnAZxJdxkemWgd8oxIAvpHEAc+RuC0bpEJlPIDtDYggFwpjBBbTXx/vGqiShNGgkgCXSqKaBoOYSPKyQbUQxxhSoAqy1AKpjAaFlIGBkpaxbIk4LhtwCBTGqDX00t8/olIYO0mtECBNFgSPPlniUO+VSm3Ma7VmBSdopjzGUDMV0K2pUuWxWwNFkCaZ0adlSiCGODugUQOFs9bUsbuvhblfOGriD6gF4V3VDI+KECipxwcQgHnr+F8pAn9C/9oFb50N2BlIksdjf4rzXykhIlBmj0f5F0oOj1suUtQZPoEWJSke3wAts5925n8E/mTS4PENjdPZfC+UQb0M7/ypPaIFvM9/hf6kTqeb/kyI8sQzfAX9MBvVE4HBDBK/zyY8qC9TzB6vwH8bysnjBfRnmPlf4QydrQGrLxpYoa+VG7yAfNoEn/ERbTKe8V2JkWAhdv7nPoL/D16ouIAZKqJk8Y0GVWHFVCi7tcdUAOWLcX40KAp72raiI0G5pPn+6ma/WCeRhHZ99CpNuedt6QQdXcraJ8H9GNQvjhzgYDE1UZ2GinDyltAX0UXWFTharHBxdGlSwyCGfJG6F6WJyWAeuxiMH2haxOz1iqllVGmTum6fmR5H852r79bWu3FBaHa2XMpAEfDZpuEYQKSGlDKJqxklCHfMkS7l7zddH/1XOKJ+Ix6/zj2YBXgqDs7w622EB3jTssQ7hpnURYXi/vcVz+j74qP9QLiKV/cBN46x1fsvaHH84033Y7w9XK/VL9vd7nwrv/3fX8Pt1fkKHx9/Aw==);lineShape=1;" vertex="1" parent="1">
          <mxGeometry x="444.7443474383181" y="206.1194921747574" width="26.415294858965808" height="36.441442115594555" as="geometry" />
        </mxCell>
        <mxCell id="mIeuOYbAj065qQ5HJTc6-71" value="" style="shape=stencil(lVfZctpAEPwavU7N7uz57Dj/4SrjoAoBFybX32cUWaCdhS54E6J7NUfPsYM8fWxf3jeD54/T8fB983t8PW0H+TJ4P+63m+N40qdBngd5ejscN9+Oh5/71/n3+8uEnJ5+HH5NJ/yZeY6ZmCea57+fr6iG/y++zoTduF8RaqUQG3yhUgDeEbd4z1TdbUKulHJDEKHsAcFRDg0heBJgUhKS1qSICTFQbgnJU6i3CSERl4agRibwBSmUWh80DAER1KQ2SiUucbtO8JRbk6rmgSEhtsKomSrIgziK0hLUK/AFVU5NLaGSR4RI3BFSAgQmHywBqdtFWw0TAWS6UqkWXwRIyVbPVE/IA3LBxrSC85mELd4D+5mcyVmGOXNLvM/4BAOqMmWLR6XWSyJSBXgny98rQgZ14GonCSWACKkLrlgXGNSB+mBzkJas3yocF20SGCRZSzMES8i4lrmTEUqD6tqGtRKDru3T0hBXhAh8mMaM7yoHJS5RbqWxml3XGdqQumJDoydR6UxKAC/Enc8OKIMpdw0ygvO70axpRs3lUbxQaGeIjgTkb7bFrDNHUDfVEWLGYF06+K3irO0XdG561B7PMl5NZodSluwo19mPRBTCosrzdqHKBTq97BKr/UWAKnQd+bR4tSFF0JGyZqnVaYGVo3izjeAVT/HRGXxA57ulgV7wqH1lodJ2I162n+v4RNHiBZ1fbZ0x1EQROxJwXymptx/htarE4pE9VR7zV8dLZz+K52UluC9fUyfPw/16ePhOcQdBHy5XmLdxt5tvQOv/7ZVHX83XJXn+Bw==);lineShape=1;" vertex="1" parent="1">
          <mxGeometry x="704.0848147844545" y="397.1415070429807" width="5.779978680464865" height="44.23026842893023" as="geometry" />
        </mxCell>
        <mxCell id="mIeuOYbAj065qQ5HJTc6-72" value="" style="shape=stencil(lVfZctswDPwavWJAgudzmv5HZuLUnrpxxnF6/H2hunRM0Folb7KMFYFdXJzk7nX78LKZPL+ejofvm1+7x9N2ki+T97vn7ea4O+nTJPeT3D0djptvx8Pb8+P598vDbDk//Tj8nL/w+4zzFMIM8vzn/IKJ+d+Lr2fz/e75ytwl4mzt87K9OEre2Oe6bB88ce+Po+KW7aOQlM5eKMiyfYrErrPXgIA/OZGPvT9MCThUIlXuAZkEnFCFXB+xuvQ/ptsA/V7qQ05UgUu1kvQnhEIRA2p/QmLyQGXHl6xpiCyNh9tHFOtTyRQRQHnthZg/gXiNlHuXNCyU2gowUisA0hQoDYASodS1L54r4pYQPtsjagAAT0ksIAHpFOCcBXhQQdVRzlaIlCDA0lRaES6eYACa8jgG05RqooxKyFMsFiAoaNXBWQAjHaSV5AUQW1EtJhPbE9xKug6A4CEgJQuoGFDF6hBXAIbWQg4JF6mwBaB2r4DQj5O5uaGSC1SSBWSsg6W1tqpdUjqOAJx8ZSjRlWz1Qwyw9bkh6NLeLJboAFhpAqkOqYFi+DQgEPdK64CAFRdtm8mCx2Jsg/xqygXEUrS7SajkVrqGmdRKKxCuVNsEfGnd9jZg6Eu6XyVQojm0EC8jKMDemqTNm6sFyKGNzFPuXVKhAavB2V6snRWQqhtl6DmKsE+OG2uAi8awEKs5Wn3axP/Y1x0JG3MBZHLrhu/maF1g2x0F1hjbzVMgk8OO56GwN8zR1B+cUZ0B70OoTBVU1kAkr6hqZOJWyR9LAnwp+uSda9VcH96vd0+7/f58O7z+314H9dX5Kin3fwE=);lineShape=1;" vertex="1" parent="1">
          <mxGeometry x="711.1571338332196" y="408.15094801084433" width="34.583770293521866" height="37.15715354043937" as="geometry" />
        </mxCell>
        <mxCell id="mIeuOYbAj065qQ5HJTc6-73" value="" style="shape=stencil(lZdNctswDIVPoy2GJEiCXKfpPTITp9bUtTOO05/bF6pGiQjKz/XOlvCJAAg8kAM/vO2fXndDcG+X8+n77tf4fNkP/GUIYTzud+fxor8Gfhz44eV03n07n96Pz/P/16fJcvr14/Rz+sLvmctMOUxUcH/mJ57Y/XvwdbY/jMe1fabqG/tCLNftJVA13xcSBGQqrgFCogA8Ko5qaQCOFBIAEjE3QIzLk22gktQGSHHJ2iZQ9Xtt0FmBDIC8hLgAwlQ8BKq02+AXJ7cBoWCACoP2zpFrfaqFBPlUKBqgkkdpYpJogQiCKJlSsIAUUEyyfG8FVFAbWSi1wCoPm0QSKtItAdIUNe9d1BlEHQOVLggGUXO11aRbU8EKXCgnCyTQpFFFwlvAgwKPuYtB8wZqQzuseAsksIJ2WIgWiKDAJXZZwkBRqeR7XKp+ef2fQetr3+0DSqsWQgkWQBunQCgWqKCWaqLcNTUSfJUVny2Aylv1O3f9gBpIXDdSbvRo9uQ63UAykLydKTeERieIJAsgKYvqcdfUSCy1R6PRGSzHdwPqkrQ7Vz6k6hrAbdA6hArYBxWm2HbQNObACixWK7XNYdCBUisb06gG5RrEVt90GEBAIGlj0OMGOjF9nnfWBxrQ1F71vl1BP1FQtdrzjO48SGo31z0M2Nl4tZmAM7zEtpi7ZchvNzNFax6BM57JibFHZz1fbfI/+u5aOfjOHtVbtHuFlUhnOXf2aNCqXnsbL/AnJXLF5hON2WrlXdUY6FzW/rL2aHzcfb24aa8/Pu8yL+PhMF+F1u/t3UcfzfcmfvwL);lineShape=1;" vertex="1" parent="1">
          <mxGeometry x="497.15122698308437" y="474.1547965515383" width="2.668399865434367" height="63.40732946074013" as="geometry" />
        </mxCell>
        <mxCell id="mIeuOYbAj065qQ5HJTc6-75" value="" style="shape=stencil(nVfLctswDPwaXTEkwOc5Tf8jM3FqT1074zht8/eBqqEtQtZ60pssYwViASzAQR7etk+vm4Hd2/l0/Ln5s3s+bwf5NjDvDtvNaXfWp0EeB3l4OZ42P07H98Pz9Pv1abQcn34df49f+DvhEqUwgth9TC8cefn34vtkvt8dZuYcKdTOPlCI6/ay+H4m79btg/4dO/tK1a/bR7Xvv+8FOkiJYh+AT5TTOiBH60EpimUdUDzV3oOS5oGHogcoHUA8BRBDqZR7D5IpAZYqN04uWRNKIG1VqPRHCpUKqIsaSXqWYqQSAEALo/eQfIvqNiAvALnV1m1AJe5LKWcSkAfvHLmephpgN6iLZKo1tU/cBhRK3AMuYa1F7XwPKFQRIC5iqJhXtsU04+E2wrVim7lIqF4LZWeDSIDXkomTpcmDILSFgvQAFSpQHAoQcyShCDpCAaYjqtYrw6C9SbVr2rbW1caDvoF5WAiN+hRUG4HYfwmgLLEF1Azr2wjNGDRSpkoSLa0JedB5YEpDE4dYUlqNB9Uq1BDKuqmlDBM3tvCyvNGR4qIfKhwpY4j9ke72qLeZG3nAM8U2RG3Ss9ajRo+VB9gQqfX8XCxxy1kVUDlGk/d/AKYhmCIKOlrpy+oBlGsJdi4mPHmLEPcs6YpT0JEc5dwBgq44aKHRkdIDdElDK1N2jcTLQlOIAa2J25y9AAKkNYqlVXesClgKqmR9tXrMkgQbtNdBCQYEiy0Nz60Jbx9pIfeQVKZitJsyOL9v0V3NHciAsme3bgZ0OpK+5rQvQFE7u5PElo01c7N83jm7ESKBSqeh9uYMZcu3Zf+SVqgQ3Lbe6/UogqoJTdBmtylgHu3ww6L+xbvaXXN9uF4LX3b7/XSrnP9vr5H6arqCyuMn);lineShape=1;" vertex="1" parent="1">
          <mxGeometry x="498.83562837916816" y="508.82793995128554" width="21.648531548113397" height="25.41519915947424" as="geometry" />
        </mxCell>
        <mxCell id="mIeuOYbAj065qQ5HJTc6-76" value="" style="shape=stencil(lVbbbtswDP0avxKSSJHSc9f9R4GmS7AsKdLs9vejYRixpPQMeXMcHvN6Djnx08f+5X03pfBxvZy/734fXq/7ib9MKR1O+93lcPWniZ8nfno7X3bfLuefp9fl9/vLbDk//Tj/mr/wZ8HlQFlmVAp/lzeJdHnxdbE/Hk4be4uUcmsvFOvngJJItAGIUAAeKq8BrAAVygkACqXUAEomyZ8DYggUQoOoRhKBi0qhdXFzeh+QqdQeUBUAAlVuAZUyg7oKqfWAAhphRtY2YlOH+4h7MRXQOm9Un3UlAUlooGR9mQqoazbKuQcEUFcHhC4HowRyyIWs86BwmjT1DPLmGwhJjWrtAQl4MBmSFqoGZiNSjgMAeCiFog4hgdFwktqQgxYAsLWvm7IyCGketaFxEemG86X2AEg5/94wSwamtaZhNCox8FCUivaAAspanJADgSoiNQ85OAAQSJVskI0MPGgkjT0A6Xce5NjLyojTus7mpnFI8B8HCElLUd8QKGlxsW6TnqUNjDf7MLfT6lsOKV9i4rbTvkcL4PSwshiO3mCO13okKe1uWKX/fn36bP0qQDcASRtMWIl0PxjuT4ZAjIKvq1bd7AMIJ+U12o09YCVH4vLA99mFJT4Qv6RefQNcIKKU+vIziF+csNbZV8TgB2/C/9v7w+0AfTscj8v9uv2/P1j91XLs8vM/);lineShape=1;" vertex="1" parent="1">
          <mxGeometry x="726.0777036142745" y="356.0710110961056" width="3.6500679959622175" height="30.97958039637433" as="geometry" />
        </mxCell>
        <mxCell id="mIeuOYbAj065qQ5HJTc6-77" value="" style="shape=stencil(lVbLctswDPwaXTEkQPBxTtP/yEycWlPXzjju6+8LV5UdQtJ2cqPlXZJYLEAM8vC2f3rdDRzeLufT193P8fmyH+TTwDwe97vzeLHVII+DPLyczrsv59P34/P0+/Xpiryuvp1+XHf4NfFaoyhXFoff05dKqf398HnCH8bjezxTCx0+GoG3CTVRjh2B7ci4TSiZcusIUinUbUJWqj0hVSrgSpoo5Y6gjXLaJiSmVDpCiSTgSqyUepWqkgqQlWJ/QLMQkEheI8ujgrQptdpnLQQKAYRMHP0BFRzApNXjuWzjI7H6gBnkLJD0KWuZKhD0Ft0Nr8QZ4f+dfsMLZXD/4AW1wkD358X+kQLYX6i4BJsCwKJmr+TxsMqIl/uD/Faqyd8/Aj2jJUC8QCgAIxT1GaggAiM0J6lVHSao83SmBnLQFp6uJMBzdaVmREHjIs0e34CH0sITbXbhhodi8HjUhCLlRU1mIGig7PYvJLCGg4tX54i28E7/RBHis2uiTBnoE6m4+0T4lH0YXyj1AZRCDdSAyNyjZkIWSEiJWm85tSSCFKv6oklh7hzrHs0Ue1NImG213lisavsYrPehTlRNVvc28dzs1wnV1zHDt7I2Sn0ruhl9vewXvg6wEZkLWnZ4RvvL7Jo7Hj3FbZHkAOch62qSHD4hvA0T7PSJqC3Wuaru+kc02zQ/bpnN0X2ajzeRolEiLB57hX3UDii9QAUn7KMz8n/xtrgP5C/j4TDN8+//9wO8fZqGf3n8Aw==);lineShape=1;" vertex="1" parent="1">
          <mxGeometry x="713.013681300195" y="361.01296517433184" width="15.973743051334168" height="17.620984123731887" as="geometry" />
        </mxCell>
        <mxCell id="mIeuOYbAj065qQ5HJTc6-78" value="" style="shape=stencil(lVbLctswDPwaXTEEn8A5Tf8jM3FqTV074zh9/H2haqiIlLyZ3mgaKxBYLIAhPLwdn14Pg3dvt+vl++HX+Hw7DuHL4P14Ph6u481OQ3gcwsPL5Xr4dr28n5/n369Pk+V0+nH5OX3h94xjR5knlHd/5htHGv5dfJ3tT+N5Ze+FNDb2HCjwfUD0pKUB+EQMPCQm374oMBW9D8iOXGgBSikBgJBrPcRCId4HFHtxG3SyG+BBhTg3ALEsgaBVKbZZkkxc7gPYWdSuRSgFgS5KC1BPGQeRtAUkyh4AMknnoZAC5jRSaomwRyYHAEza5nWVh12EJSX63kUEXEupzK6CEMCEJAqbNMUMALGWwoqIiDxEctJTzSCvBshd+SVIhBVbpwirV+hhIXYBMDlEteuzVJQUUb3pGwYoqFwt6y1x4moa9gGFUqc5TwmLlLlPKxKpAbQDCHmUJSXpaokpYVG7tjOZpjIClFqbq/L2CJBqe18JiDFxslGcIuIc+dQDCpaodDEIbBtT9XcxZNjw9wEghrLpxiXXEbA/5aSO2QrIDJurjUVpqzUFKKAY6veWKZdIANMhV16XOSpQcX7pEctoxzzEqpale5cq8n0HlDv7DAuDa2df7BNsSq6uCatdhsEuYyT304cUcLYd0ZTB861FtuFmiuA13C8lEZaorzJfyKrjfb8aqLTVY2sZ2tr6tzusl/7tn0zxmuYPcw/M/3ep/dzeDh8b9Mt4Os0L+Pr/fuO2q3lbD49/AQ==);lineShape=1;" vertex="1" parent="1">
          <mxGeometry x="724.7703000631695" y="365.7664448436501" width="16.63049765355072" height="13.05101262881658" as="geometry" />
        </mxCell>
        <mxCell id="mIeuOYbAj065qQ5HJTc6-79" value="" style="shape=stencil(lVfZctswDPwavWLAAzye0/Q/MhOn9tSNM47T4+8LVUNFhMLN9I2msCSxABbwFO5ejw8vh8nz6+16+X74dXq8HafwZfL+9Hw8XE83XU3hfgp3T5fr4dv18vb8uPx+eZgt59WPy8/5hN8LLlMIM8jzn2XDE/O/ja+L+fn0vDF3Ql46e92JMgb4RJn7CwrVNAYEodDfEAqxHwNipFo7QCwkwAcRKj1AKgU3BiQlKXeAVEnCGJAr+dQB5p0yBtRMtQ9DdSSApaokuh7gKQKna6Xke0AgyRBQSw9QokGkZ0AfuJooVAgQ43SmHKHT2TypUEE+6Hl9HGYakA+JpE8NxwwLokrzcXNFQV7HlgkbQAD5rXEKO68Dyg2/oymTQz54EhM5oYR80BtM9sWW8SMfjGzoEUgF9DzXy4YWREW5IeSKBQTkdNrR6jBLuVXk9gaUfYXSrkYZqUCluKtR90nJsY1DBE/aZPMm1BVon15hQ52hWCqADU0FiqV+dsZr5QEBkhX8mQcEkF1BrOI2yr4ULEBQID4EgPzOYrOvJGJQckkrqGcpJ/Ig1OKaSKxNSyBLkVtyrm1RWig/7tTcCmxtvJEy8MFrT4sdQJu9RzpDbIYThtrKVu5zS96BuVHiBFWP2xiy8gNDvKu0CLuhPqavs1UyB+app9KTR3ObdRWLo+pUP/Bwk7KBuRkVmBxIzdCU/N0ctVgdO7w9HTxGpzt7OpoGNebJMONAn/nPeflTc128j+ZPp/N5mey33+0or1vL34Bw/xc=);lineShape=1;" vertex="1" parent="1">
          <mxGeometry x="571.081124543464" y="315.0771341174575" width="22.717671731489872" height="19.004507900746376" as="geometry" />
        </mxCell>
        <mxCell id="mIeuOYbAj065qQ5HJTc6-80" value="" style="shape=stencil(lZfbbtswDIafxreEROp43XXvUaDpYixLijTd4e1Hz1Bs0fU/9M5V+VXkT1JkB3l4Oz69HgZ2b7fr5fvh1/h8Ow7yZWAez8fDdbzp1yCPgzy8XK6Hb9fL+/l5/vn1abKcvn5cfk5/4ffMCVU/Qez+zAeOcvp38HU2P43nlblncrGz9wqUfUAv8LkD9CTmfUCYJHWAnhTeB4JQ6m8IgZzsAzFS6W+ICQKpUqgdoCcMVCqRvHRAYfJ+H6ilidiAqrqBoGsliRbIFQK5V6kGyiBoBapxSXWLGDA3ZCjr5FLogdJ02w26L1Y9cSAPk6xsgewgsClvRw4ReZMI1QFlLjUPVkAADaGA6aApLORSbP2ySkQCPapAMqlOFFEi4qaYIgmOwW2qT1BDqAN9j2p9Q5UyeRMDU0UxZCrZAujpU9WtS9wqfq9crUuCZa2UolUpoEzXFuIqD0ilVTWvUp0CvKKYJs3wwV+qeV2uCCibICpF1EGFuFigohgyxS2AHstkp+KUGlQbnwWKEPc9WgoEkr4zfeKydi3ooKhjsZc1MQUABE+hdyk6CiBx4uxjKfep9PEu4Nrkv+8C9yHzsazEvb3PxCDRnlwfQYbdoO6YsQ5HqGsz/64PVZAx10bTYu5AVW8aEy8xat6XtJADyjg7ORmuF84+RB6+1r4tN8sSiWrZtxdnMWfgDNtWwRNZt0XrDNJdSKp1BhX95/bl/5rrx7Kav4yn07zZr39vV3k9mv8NkMe/);lineShape=1;" vertex="1" parent="1">
          <mxGeometry x="595.1353283754886" y="314.1395542951386" width="35.077230013598864" height="20.915099732897716" as="geometry" />
        </mxCell>
        <mxCell id="mIeuOYbAj065qQ5HJTc6-81" value="" style="shape=stencil(lVbZctswDPwavWJIgOdzmv5HZuLUmrp2xnF6/H2hqpyKoLWdvMk0lrgWS0zy8HZ8ej1M7N5u18vXw4/5+Xac5NPEPJ+Ph+t8069JHid5eLlcD1+ul/fz8/r79WmxXL6+Xb4vN/xccZFSWEDsfq0Hjmr8c/B5NT/N5405BxLp7BWQ/D4gCKXYAaRSAB6SUM0dIBYqdR9QEnEPyJUi7wNqoVw7QGWKIIeqEfceqrSTPUApPSBQAjl458i5HpHIoSTUhQFkkgABwj2gUHSwTNGUSa8oAJBbjhsA6pymmMUCKvIQh87Vxt/7gEC12qQrSlr5XW1ZC/bgDDcSRcQNBaQeEIlRpzUkAxA4o0vSpqxMBYUUhz4weVSlRMmE5CmjHJQaPABQp0sb4U1InCC9eZhRjwcoDzOKPNyb0YhbXRvXNtyoWGj+6tCGrh6xT6WxV1e9AmZdhhy0DiiHTK73sKnDHjncKAMIoPwfZMBjGfgYoHArewMUPKTJWcVPmhVohD5qRmhCggTXZ1P6h5dLU5L79KPQD4S2XvbNnX0e9HbAPI2m73KGr4+zohehqg6DE6BaOPJ9e4Ui0DvtVS9G3A52zM1+4eHj7yn1wTjKaEGi4Iw5I95YJuPZ0rejWHNwe7D6o20GFPvgLvhfc/34t3a+zKfTurVu/7drqh6tK648/gY=);lineShape=1;" vertex="1" parent="1">
          <mxGeometry x="636.0716010285041" y="318.0743755216895" width="26.298708405463003" height="18.921359136802266" as="geometry" />
        </mxCell>
        <mxCell id="mIeuOYbAj065qQ5HJTc6-82" value="" style="shape=stencil(lVfbchoxDP0aXjW25Otzmv5HZkIKUxoyhN7+vtoyXpDYPZm8LUbHko6u3sjD++7pbbvh8H4+Hb9vf++fz7uNfNkw719329P+rF8bedzIw8vxtP12Ov58fb78fnuaJKevH8df0w1/LrieqdUJxeHv5aRSaf8Pvl7kD/vXG/kaqCQjHxNxWQfkSqFbQKPM64CUiYMBMFNL6wBJlJsFVBLgAyfqFiBMDEyKykmxgEqxQ0C2gFRIMjCJKVpAZgoI0KjauGVMqxSqNg5Fia4wDs2aVCM1AZFWAFtApQpMKoU4G0DjkY2LgB6JxQC68gZM6kISPaCD1OiJqk1vPYEaMomlVU8SCJz+HW3y9UItQpOipbU3CqDi1EWxtPZOAdEaKIgHVFBxrVKyJsWgdwSAUF6bV9FAbmgmeF47MaCpBcrB08QgELWTOF7r4GEZ0KjbgtBYFtAFVENygAS7gPrgiloTOIJQK0vVhZqh0y2PvjUDIqxRDXXLHlBApDWZknhARxXEY+Dc+FBQfqe7/BboQ58b3U3gULZORe26gLZvbJLr971iH4SCa0xzQ1+j1cehD53LgWskwQM6AmQ/2ScACFzT3LwDJKThswCdKGJzSb0qaHdIntaG+71oHNzMKpRBHFgB1ofSqQCWdD1yk70wHBCz/nmw50HbsgLvQaqjAhfl50Y97zKaSOD+7IeDLktou5r2QevA5BJQMGmwlKpPSMO0ylhKYxm5u5wW6qFNi8hwmJS5oVy34gos0rR0O+s8jZbltbK6k4dbhrbQ6ORhA5Oxqd3cjxueq33t4oBQ7W5ucwvDoWV53U2tvE4dtPNoX3Ar/djx1+S7zTmhjIoy3FVBgtvz1GxdVQ4L1xyu9v4PBkgdfF8TLiKCPvls+1heP65vxJf94XB5Yt7+79+UenR5j8rjPw==);lineShape=1;" vertex="1" parent="1">
          <mxGeometry x="359.6155771683666" y="347.8353423756723" width="14.5428298802276" height="28.46341219561623" as="geometry" />
        </mxCell>
        <mxCell id="mIeuOYbAj065qQ5HJTc6-83" value="" style="shape=stencil(lVfLctswDPwaXTEkwec5Tf8jM3FqT1074zh9/H3BaqQYULme3GQZKwILYAFO/PC2f3rdTcG9XS/n77tfh+frfuIvUwiH0353OVzlaeLHiR9ezpfdt8v5/fQ8/3596pb96cf5Z//C7xnnqJYOCu7P/CIyufrvzdfZ/ng43dgnclnZsydXxvaeKVQFCEwpjAFhPX8B+EYxjwHsyDkNKJQYACqFoAGRuI0BsWxOYPLghJSoJg0IlEEMOVJ0FhCBSyUQhw0gAUBbQlwBwhuIoWbyXgGENj+2b4EaK3shIQL7Zr+/5nFkbwNYSnFkn6OubMqgUMW+RktQBAQJoOlWkLorwCPvNpXaOcI+NV1HzAvLwyA0qVFYAnXUWTKATAkDWLsU270YnFaY5CghQKWqWYp1SeUIkHQiYqSASqPaUuJCFQUtpW8ADjdD3aheIAdUr7tkiimSBzrcg9YCIKKH2qdS0XkTRULfb4u/H+0ZcDuzM/YRBdxs0hgz2qhoRoUxbG/kyCfyIMf/605ReRxy0y7JLLzjkxm2MorqHQ3TJ0hlN5y1aERP8gjGQlfhTXdmrDCfBASrYSnD8dwHjxkkdVHa0WiLWsOyg7Ruh2dmYkDrdjwLIIET+gKQLaCBdugrhokhwo2hLzGa1pwXzRmuSSboBmdJr37tkvCWQC3JUsS6+ErBLNkQeurRLrnZDB3eGZwd6b0DgQY4OwxFNdGe52zhtUgV2gdd2c3BgOVfXXY1wpVkk2JJQAMKtlG84uHyv26MN0UaQEWI/9qfVOBO6JaxvdqHZVUf8a/9kTYqkB+7EkqTwe9/7nJ0314ePm5iL4fjcb7I3f5vb27yar718eNf);lineShape=1;" vertex="1" parent="1">
          <mxGeometry x="368.1510567876471" y="363.877533778772" width="87.10979103952263" height="2.9668530542569442" as="geometry" />
        </mxCell>
        <mxCell id="mIeuOYbAj065qQ5HJTc6-84" value="" style="shape=stencil(lVfLctswDPwaXTEgwec5Tf8jM3FqT10747ht8veFqsoWIXPd3CQIK7wWADnIw9v26XUzeH47n47fN793z+ftIF8G73eH7ea0O+vTII+DPLwcT5tvp+PPw/P0/vo0ao5PP46/xj+8Tzih5EeQ549JwJTSX8HXSX2/OyzUXSJXGn0XyOc+wGeq0gBU4mofIIl8bAAqca4PCImkNgCVpNIHRHWgtaCSCmJImUKbpFQocB+Q0/x5Bqikhj6gRAq5AahEYh9QK3EbdE3EIGgFxGwBEVsoxsIlb7epwUzMFlFA1GqiGkCh6CEgGUAlhy04sYCELKgDK0BFAA3RNMQ1Dz2EX5kooOe0UClbQAQdoQBroVAFPVcj1WIBgvIaZzovSp0Qmy49vKBfRXxNtiNGCQ66Gr5GbEE9dhaQUQxlnnRLAMpSWfFbXUKVrhTEBi1gMo3M4VVa77TcqqsTSmudPV5SA9G7UvYWcMclWTV1QIUrc9aXDYTr4FoL/9GjYWXi3x7rsa+sAHca4nOA4m2PFi0EcCkLlZau+TJvb6+5QLm1kB15tEiDzVJiKsClIHaSBZ1kwIIIBXMY0MUH6OojcUtX4bn4t7eW2OOG0/kMZiXbFSSUQYfy/LOrOtrrbNe6h6thtXE9pISqt/VylGGorhp1RAem0KYek+Hy9aoe0PHCDl+eT6Id9RyNOgNnPHnrO5oPnrJVRyQTu48ZlumTZ/K76vpwPf6/7Pb76faw/G6vCyqarhry+Ac=);lineShape=1;" vertex="1" parent="1">
          <mxGeometry x="367.15197362024946" y="245.15313119952157" width="40.15065363089775" height="38.16140789101223" as="geometry" />
        </mxCell>
        <mxCell id="mIeuOYbAj065qQ5HJTc6-85" value="" style="shape=stencil(lZbLctswDEW/RlsMSICvdZr+R2bi1Jq6dsZx2ubvQ1WlbULW9WQnyzgUAVw8Bnl42z69bgbPb6fj4efmz/h82g7ybfB+3G83x/FUnwZ5HOTh5XDc/Dge3vfP8+/Xp8lyevp1+D2d8HfmhEqZIM8f8wumHP69+D6b78b9lbnLlHNn7woFWQdESaUDJJLXdUCVUugAjRTLOhDqeb0LIZMDQExUfAfEQj6tA5mp9E5nR5zXgbKIUlGKDIBC2l+pBHIgDxXIzgL/vbqdOGZi7onYzlj7RIk9kCiBzFUgGSfyPa+9CVMhQVfKlNgCCaS6Atyr7yoOt4lEEuwnCrpTpCQWCCATFfBiw5SRE6Fd4ApgoNcKpL4iqlcu4i8stIGKdPp7IT/FTicD1DpHJVTz4C0guOasvrXJaw2IyQKKwlrlGi1Q7hQE2yhFXNW25CIFoNZbVZ1aw11tHIsiFQyoWn07VEF5IaZCEakvL+J6jsOaNkJaAChzkcqiRiPSxleBVMXURymHNgNuD6HQtNaApK1X3R5z0prveWp5qD715HogOFLQZ8S1NJ0nr4NXcrXP9D54hVOLKfUfwOXAJGawEwNZMLk+Z7VhQHNTOUIBRKea9w3Mw+nJreFezBm6arYkd+fupogZNtN6GBtzQUseZTXmaNvxdnfBE9YvN04HAiltvbyYKzj9i/vsXfP6cFmdX8bdbt68r/+3q3Z9Na/p8vgJ);lineShape=1;" vertex="1" parent="1">
          <mxGeometry x="401.139672495151" y="253.13503739492262" width="36.15511505886275" height="26.601312051223204" as="geometry" />
        </mxCell>
        <mxCell id="mIeuOYbAj065qQ5HJTc6-86" value="" style="shape=stencil(lZbLctswDEW/RlsMCT6xTtP/yEycWlPXzjhum/x9ocp0+ahuxjtZwjEJ4OKSk3t42z+97iY2b5fz6fvu9/x82U/uy8Q8H/e783zRp8k9Tu7h5XTefTuffh6f19+vT0vk8vTj9Gv5h/eVc5R4gdh8rC8MJf/3xdc1/DAfq3AhH5vwRCFvh3Mg65t49sSyDXimmBvAW8p2GwiOpAUCUwrbQBSKbcYxk3PbQE7k2hyyZgVyECGbGkACBVTUYUsSyeAVxPRAAoA1hkxHaOcSXCJLC2iZQF2XJLoVhAwGOm3om4CyzkVrFSAMgETSqrWqwxZxzbFaIqMlYvlcAR7oVQHPfV0z2lIsYqsAgzqnQJu1ZsVgSBW46r9SU8BJd0OqAs8RltUOgEOtTpQGwKIRyuTNACD1ZRLpAdg47euYNB7SPJYVD0S/JZUj3pJ0as1kkZakd/tFfMD7FLhuoJY3AjKl1AMZN87ePaNh8A3BIyeDb0DvuxfQA8G0ZcoC5Rp1IlsgMTHQRrC99wV1fDBy3vS24QNsBDOFdoJYDR+4QCwluTXOwiLpxaJN2cOuGXKxC0eOoem2ynbFQTbCu+PQFX4rvN07kwe1NMV6bqX5ZDOdd9lil1uFbAtvih3//+zvpaaVBeNlxwshOm1usq3Cwb9z7+sGXnRcObiqvYMpufMy+2m4Pvy7N7/Mh8N67a6/9/dsfbXe0d3jHw==);lineShape=1;" vertex="1" parent="1">
          <mxGeometry x="440.1216062284734" y="249.11697706047084" width="39.654827007491804" height="31.245991548119036" as="geometry" />
        </mxCell>
        <mxCell id="mIeuOYbAj065qQ5HJTc6-87" value="" style="shape=stencil(lVnLctw2EPyavU4BGDzPjvMfrrIcbUWRXLKS2H+fQdagiAbZW75JJHqBefX0gBf98O3x09eHS3Df3l5f/nz49/r57fGiv11CuD4/Prxe3+yvi3686IcvL68Pf7y+/P38+fb/1099Zf/rr5d/+i98v+GcNN9Bwf24PfCi6f8Hv9+WP12fd8uDaJ6XR3HufH2UGKf1oUjO5+uzxDqt1yquna8v0ubzxCienL+huSmIK+frvb2eN0hVCjHA/BFmC7JKCQRgJs9HylmCEkBFnxqgEh9ZjKPOgCiZGN2jPNuQzG+VABajk9K0sDj/9PoubontYGkz26BJEkvUNg6wZV4W788B6iTMAItMJV5SL2kGNFFiswbM1TSS/Xi9eWT2kWUKCbPmxYAteY8BRcq8gWWKMhc1DLOZzEyITkqbo9Y4XQQJMyBWyhdRcYdkUSM2xLRUj5dCyi0WCQELupGCjk38AggkVZPHVM1OEtnBOKuuRkcCiIuXAjXafi8vcYhsB3u9ELGSbO2MAoAgmaSGhUlnt1rslRwpB6QMC6UnRzJWdNAclDJxTgt1O/HMBgsTMHEZVh0DKhpdLJRkh+Iwl6qjDb2E0V83QBjJcgwwWloAgZBAKYNUNhvqIJ5DgJ0Yem5RWg92gAZurYNHjgEJZYDFnnmp1lHyO9aoJDWakQrIAHM0EybWQoHtk3ji1pZRilnsGztSRSKrfhTtMaBJhQZnRnMAuLUZUzEbNlmxAUy+MTnmlvxuidJG32L2ayviSDJ1AOzAk8kAEGp7EogR9jpHBNzxa2wIaPxIuuzA2mg/sUejmaY0gPfoVlbUBviZ/hvA5AyPAwLiCOUpALykVFN2GyBwQSLPJWAyK4hEWlAPXEIAaxA9TMsOnnupLDtkon96qhU0Ot0poIxuLWSH4xq9Y0SDyGVJd4hmJnzLvsaNgMZr+X2ngvJScsxqe53mktv54TSbli0qd1NICGCC5tcBZdi4tYjG8zVjzZVGW3Xn99lNpidobiyNtHg6x9mJQcX1vsjUQ0aiMbkRmT5R8XMymcRh4tgEDfR2UyyVqbiCatoEiJIjmRPz3NutqlkPMieuVe2Z1m2oppsb1HMMKMhMprrYVUu/9gjoVqaxTLNVANiR2ESg6NYu+fkIAW0xbSLqbEjxMGiZrmM7OEw+m8wyH7SAmGxIUdLlbJQD6ZoK1espYQGZVZnNrzo4YiddmXiwgddDHBqdOfpIDVo38Cm/LLyk9MorJtQzViGR7aDIrd1o4qXohwLbxYFNyNGNm8zdDO5IPWgdYdpdnrKJQMsQ2xvA0VzShDUdlNa0Lve/vlKaUUUS8JnKE10uaG0H1oHMxAo28JE6tKEiNy8ppZlQsT9EpawRMt4kGgkkdqMbkYz77QgRTCFgf7AJmcmZ4FDO9AIi6d1vpaGAEr0ztrjCVZ8BlN17x6VPBxoH7zFbrSdlJn8kLdc5jMeKpDkKnQlZd0BdHDPt6jqmwv2dN/v2gPVvTxjTOyx/PvO5hVOHhjhbDjlK+XEZGhLNt2V5pNOkG31+cyWtSIcdLQzZerZ89oyn94ZufCcYyx39lOGGZe/LGYVuP/a+nI0hTnLFXyc56UbffV+e6WF+6fPi3eX2x/uXzC/Xp6fbh9D9e/zyaY9uX031438=);lineShape=1;" vertex="1" parent="1">
          <mxGeometry x="506.14241679021075" y="215.13789729464622" width="157.79319211882762" height="16.83974662930177" as="geometry" />
        </mxCell>
        <mxCell id="mIeuOYbAj065qQ5HJTc6-88" value="" style="shape=stencil(lVfLctswDPwaXzEkwRfOafofmYlTe+raGcd9/X3haqQIkLRtbjKNJUFgFwB3/PB2eHrd71J4u10vX/c/j8+3w44/7VI6ng/76/GmXzt+3PHDy+W6/3K9fD8/D79fn+6W969vlx/3HX4NuEYt3EEp/B4WAlX5u/B5MD8dzzPz2KlGY1+ppG17LpSqsY+ZetkG5ErNAtSjDk4oQqlYQKMctgEtUmcD4DxusQromYqNUY5U6zZAMokDCOUOohoCBYsoDfokmrdu81AogjD1TkkMoCVKDYSpULVxbZ1a3AbUSGwz1wvlDLghFOwJkqiDuCp1OFmAjGFYBzCF7gGC6K3cCAsAcknlsgA0wD7x+lH7hPJGYskqnQq4gerT2TcYU81p8fYRZFlG0kz2lTLDAMVsAYU64J2mwFUMBRTgUUxU2AMYs8InWYmKWKF6Xt4BXVr/zj5KjGhUx5I1S0MA2lFAqR4ApaAOuBM6rNx6h+pOEIpYnVU8AJVJzUNZaEFA0dNMJ6v/WeHcYp8sCkCH9JaFS6iZyCiWWVTR/irP7u2R3PoiCQ0SaVlSK1XAoykaM3vIuzCKdyaFitQZxvLznwCdGILVjrauBgpGqRSt/nvEjUo8KVoeV9aTEClb3lUty8ClLr5RVR7HmvU0JIo2rKVTRmV76sUTQLcANUybt9g85GlKWY/SVNenMamNE8F6HthnmlV9oMLoFMX2DilTBicoW91sGDuuMMnLR+nIqNL7ipSpgRsEP4TpIAnaQvCdjWFAFzOhTjPQmeCiSQw4qs5Y31U00HfXMyNuBlRsHdI5CTiTKDdnzoCbPHaud/MA9Jv9TISbRqGWP7B79SQIo/jXhfixB9c/zfXj/W33cjydhqfh/H//FtSl4R3Jj38A);lineShape=1;" vertex="1" parent="1">
          <mxGeometry x="649.0873956785763" y="211.08124421675404" width="19.81186453650116" height="33.97359666901559" as="geometry" />
        </mxCell>
      </root>
    </mxGraphModel>
  </diagram>
</mxfile>
